<svg width="60" height="72" viewBox="0 0 90 102" fill="none" xmlns="http://www.w3.org/2000/svg">
<path d="M80.6068 0.386398L37.7846 13.8044C32.5966 15.3203 28.3914 20.8628 28.3914 26.1763V72.4387C28.3914 72.4387 25.2887 70.2952 18.3777 71.2979C8.22912 72.7743 0 80.7525 0 89.1215C0 97.4905 8.22912 102.618 18.3777 101.142C28.534 99.6735 35.9769 91.9401 35.9769 83.5671V44.067C35.9769 40.3563 40.3323 38.7654 40.3323 38.7654L78.194 26.6106C78.194 26.6106 82.3837 25.1697 82.3837 29.141V60.8682C82.3837 60.8682 78.5255 58.5944 71.6146 59.4549C61.466 60.7142 53.2368 68.5266 53.2368 76.8917C53.2368 85.2646 61.466 90.5624 71.6146 89.2991C81.7709 88.0398 90 80.2314 90 71.8584V7.26319C90 1.94966 85.791 -1.1295 80.6068 0.386398Z" fill="black"/>
</svg>
