<svg width="70" height="70" viewBox="0 0 100 100" fill="none" xmlns="http://www.w3.org/2000/svg">
<path d="M5.55556 100C5.55556 100 0 100 0 94.4444V5.55556C0 5.55556 0 0 5.55556 0H94.5305C100 0 100 5.55556 100 5.55556V94.4444C100 94.4444 100 100 94.4444 100H5.55556Z" fill="#31373D"/>
<path d="M52.7779 91.6667C52.7779 91.6667 52.7779 94.4445 55.5557 94.4445H69.4445C72.2223 94.4445 72.2223 91.6667 72.2223 91.6667V13.8889H52.7779V91.6667ZM77.7779 13.8889V91.6667C77.7779 91.6667 77.7779 94.4445 80.5557 94.4445H91.6668C94.4445 94.4445 94.4445 91.6667 94.4445 91.6667V13.8889H77.7779ZM27.7779 91.6667C27.7779 91.6667 27.7779 94.4445 30.5557 94.4445H44.4445C47.2223 94.4445 47.2223 91.6667 47.2223 91.6667V13.8889H27.7779V91.6667ZM5.55566 91.6667C5.55566 91.6667 5.55566 94.4445 8.33344 94.4445H19.4446C22.2223 94.4445 22.2223 91.6667 22.2223 91.6667V13.8889H5.55566V91.6667Z" fill="#E1E8ED"/>
<path d="M83.3332 63.8888C83.3332 63.8888 83.3332 66.6666 80.5554 66.6666H69.4443C66.6665 66.6666 66.6665 63.8888 66.6665 63.8888V8.33325H83.3332V63.8888ZM58.3332 63.8888C58.3332 63.8888 58.3332 66.6666 55.5554 66.6666H44.4443C41.6665 66.6666 41.6665 63.8888 41.6665 63.8888V8.33325H58.3332V63.8888ZM33.3332 63.8888C33.3332 63.8888 33.3332 66.6666 30.5554 66.6666H19.4443C16.6665 66.6666 16.6665 63.8888 16.6665 63.8888V8.33325H33.3332V63.8888Z" fill="#31373D"/>
</svg>
