<svg width="80" height="80" viewBox="0 0 100 100" fill="none" xmlns="http://www.w3.org/2000/svg">
<path d="M88.8889 58.3331V61.1109H83.3334V58.3331C83.3334 57.0942 83.0834 55.9247 82.7084 54.8109C86.5217 53.6336 89.786 51.127 91.9078 47.7469C94.0297 44.3667 94.8681 40.3374 94.2708 36.3915C93.6735 32.4455 91.6801 28.8448 88.653 26.2441C85.6259 23.6433 81.766 22.2152 77.7751 22.2192C73.5002 22.2167 69.3895 23.8646 66.3001 26.8192C65.3669 22.082 62.7046 17.8615 58.8313 14.9788C54.9581 12.0962 50.1509 10.7577 45.3452 11.2238C40.5396 11.6899 36.0792 13.9272 32.8321 17.5004C29.5849 21.0736 27.7833 25.7271 27.7778 30.5553C27.7785 33.9154 28.6515 37.2178 30.3114 40.1393C31.9712 43.0608 34.3612 45.5013 37.2473 47.222H36.1112C33.1643 47.222 30.3382 48.3926 28.2544 50.4763C26.1707 52.5601 25.0001 55.3862 25.0001 58.3331H22.2223L5.55561 47.222H2.77783V86.1109H5.55561L22.2223 74.9997H25.0001V80.5553C25.0001 83.5022 26.1707 86.3283 28.2544 88.412C30.3382 90.4958 33.1643 91.6664 36.1112 91.6664H72.2223C75.1691 91.6664 77.9953 90.4958 80.079 88.412C82.1628 86.3283 83.3334 83.5022 83.3334 80.5553V72.222H88.8889V74.9997H97.2223V58.3331H88.8889Z" fill="#31373D"/>
<path d="M61.1111 30.5556C61.1108 34.2395 59.647 37.7724 57.0418 40.3771C55.7518 41.6668 54.2205 42.6898 52.5351 43.3877C50.8498 44.0856 49.0436 44.4447 47.2195 44.4445C45.3954 44.4443 43.5892 44.0848 41.904 43.3866C40.2188 42.6884 38.6877 41.6651 37.398 40.3751C34.7933 37.77 33.3302 34.2368 33.3306 30.5528C33.3309 26.8689 34.7947 23.336 37.3999 20.7313C40.0051 18.1267 43.5383 16.6636 47.2222 16.6639C50.9062 16.6643 54.4391 18.1281 57.0437 20.7333C59.6484 23.3385 61.1115 26.8717 61.1111 30.5556Z" fill="#66757F"/>
<path d="M47.2221 36.1111C50.2903 36.1111 52.7776 33.6238 52.7776 30.5556C52.7776 27.4873 50.2903 25 47.2221 25C44.1538 25 41.6665 27.4873 41.6665 30.5556C41.6665 33.6238 44.1538 36.1111 47.2221 36.1111Z" fill="#CCD6DD"/>
<path d="M77.7752 50.0001C83.9117 50.0001 88.8863 45.0254 88.8863 38.8889C88.8863 32.7524 83.9117 27.7778 77.7752 27.7778C71.6387 27.7778 66.6641 32.7524 66.6641 38.8889C66.6641 45.0254 71.6387 50.0001 77.7752 50.0001Z" fill="#66757F"/>
<path d="M77.7753 44.4445C80.8435 44.4445 83.3308 41.9572 83.3308 38.8889C83.3308 35.8207 80.8435 33.3334 77.7753 33.3334C74.707 33.3334 72.2197 35.8207 72.2197 38.8889C72.2197 41.9572 74.707 44.4445 77.7753 44.4445Z" fill="#CCD6DD"/>
<path d="M47.2222 55.5555H74.9999V83.3333H47.2222V55.5555Z" fill="#8899A6"/>
<path d="M52.7778 61.1111H69.4445V77.7778H52.7778V61.1111Z" fill="#31373D"/>
<path d="M36.1083 83.3333C39.1765 83.3333 41.6638 80.846 41.6638 77.7777C41.6638 74.7095 39.1765 72.2222 36.1083 72.2222C33.04 72.2222 30.5527 74.7095 30.5527 77.7777C30.5527 80.846 33.04 83.3333 36.1083 83.3333Z" fill="#8899A6"/>
</svg>
