<svg width="280" height="296" viewBox="0 0 280 296" fill="none" xmlns="http://www.w3.org/2000/svg">
<path d="M0 0H280V170.248H0V0Z" fill="#0CBFB4"/>
<path d="M280 160.575C280 235.368 217.32 296 140 296C62.6801 296 0 235.368 0 160.575C0 85.7821 62.6801 25.1503 140 25.1503C217.32 25.1503 280 85.7821 280 160.575Z" fill="#0CBFB4"/>
<path d="M76.6282 239.505L68.1249 249.99C67.3312 250.969 66.4238 251.675 65.4027 252.109C64.3689 252.558 63.3106 252.704 62.2278 252.547C61.145 252.39 60.1375 251.933 59.2055 251.177L54.6851 247.511L55.8567 246.067L60.3771 249.733C61.3246 250.501 62.3707 250.783 63.5153 250.578C64.6754 250.386 65.6838 249.762 66.5404 248.705L67.5041 247.517C66.5497 247.773 65.6015 247.815 64.6593 247.643C63.7297 247.456 62.8766 247.047 62.0999 246.418C61.0591 245.574 60.3286 244.569 59.9085 243.404C59.4883 242.24 59.4042 241.026 59.6563 239.762C59.9083 238.499 60.4941 237.3 61.4138 236.166C62.3208 235.048 63.3523 234.236 64.5082 233.732C65.6923 233.224 66.8898 233.049 68.1006 233.207C69.3271 233.378 70.4607 233.885 71.5014 234.729C72.2937 235.372 72.8711 236.136 73.2338 237.023C73.6246 237.906 73.787 238.849 73.721 239.851L75.0437 238.22L76.6282 239.505ZM63.2249 244.935C63.9705 245.54 64.7818 245.889 65.6589 245.982C66.5516 246.088 67.4318 245.939 68.2997 245.536C69.1677 245.132 69.9417 244.511 70.622 243.672C71.3023 242.834 71.7501 241.948 71.9656 241.015C72.1811 240.083 72.1449 239.191 71.8569 238.339C71.5845 237.5 71.0755 236.779 70.3299 236.174C69.5998 235.582 68.7962 235.239 67.9191 235.146C67.042 235.053 66.1695 235.208 65.3016 235.611C64.4463 235.999 63.6785 236.612 62.9982 237.451C62.3053 238.306 61.8512 239.199 61.6357 240.131C61.4202 241.064 61.4487 241.95 61.7211 242.789C61.9935 243.628 62.4948 244.343 63.2249 244.935Z" fill="#FFE9D0"/>
<path d="M71.7729 253.03L79.6336 241.397L81.3239 242.539L73.4632 254.172L71.7729 253.03ZM82.0072 239.706C81.6261 239.448 81.3925 239.097 81.3065 238.653C81.2371 238.22 81.3312 237.813 81.5887 237.432C81.8351 237.067 82.1665 236.844 82.5831 236.764C83.0274 236.678 83.4401 236.764 83.8212 237.021C84.1858 237.267 84.4111 237.613 84.4971 238.057C84.5942 238.485 84.5141 238.889 84.2565 239.27C84.0102 239.635 83.6648 239.86 83.2205 239.946C82.7762 240.032 82.3718 239.952 82.0072 239.706Z" fill="#FFE9D0"/>
<path d="M92.231 241.738C91.6296 241.38 91.0084 241.289 90.3676 241.466C89.744 241.654 89.2378 242.074 88.849 242.727L86.8999 246L89.6838 247.658L88.7323 249.256L85.9484 247.599L79.7174 258.064L77.9645 257.021L84.1955 246.555L82.6489 245.634L83.6004 244.036L85.1471 244.957L87.0962 241.683C87.7612 240.566 88.6558 239.865 89.7798 239.58C90.9313 239.288 92.0656 239.474 93.1826 240.14L93.9043 240.569L92.9528 242.167L92.231 241.738Z" fill="#FFE9D0"/>
<path d="M84.7074 260.856L90.323 250.048L88.1933 248.942L89.0508 247.291L91.1805 248.398L93.3244 244.271L95.1347 245.212L92.9908 249.338L95.8659 250.832L95.0083 252.482L92.1332 250.989L86.5176 261.797L84.7074 260.856Z" fill="#FFE9D0"/>
<path d="M95.2849 266.411C94.03 265.887 93.0346 265.156 92.2986 264.22C91.581 263.292 91.1774 262.235 91.0878 261.048L93.1233 260.923C93.197 262.667 94.2304 263.955 96.2234 264.787C97.183 265.188 98.0498 265.344 98.8237 265.256C99.5976 265.167 100.139 264.754 100.447 264.016C100.763 263.259 100.74 262.589 100.378 262.004C100.034 261.426 99.248 260.816 98.021 260.174C96.3111 259.286 95.2035 258.357 94.6983 257.387C94.2115 256.425 94.1917 255.409 94.6389 254.339C95.1401 253.139 95.9631 252.389 97.1081 252.087C98.253 251.785 99.582 251.95 101.095 252.582C103.66 253.654 104.98 255.397 105.055 257.813L103.019 257.938C103.014 257.068 102.78 256.331 102.318 255.726C101.874 255.129 101.181 254.634 100.24 254.24C99.2802 253.839 98.4688 253.706 97.8056 253.841C97.1608 253.984 96.7035 254.378 96.4337 255.024C96.1792 255.633 96.2386 256.243 96.6119 256.854C97.0113 257.454 97.8522 258.087 99.1347 258.753C100.715 259.587 101.764 260.502 102.28 261.498C102.822 262.483 102.869 263.511 102.422 264.581C102.06 265.448 101.498 266.092 100.738 266.511C99.9852 266.912 99.1281 267.095 98.1666 267.062C97.2051 267.029 96.2445 266.812 95.2849 266.411Z" fill="#FFE9D0"/>
<path d="M111.858 271.583L114.866 259.781L112.54 259.188L113 257.386L115.325 257.978L116.474 253.472L118.45 253.976L117.302 258.482L120.442 259.282L119.983 261.084L116.843 260.284L113.835 272.087L111.858 271.583Z" fill="#FFE9D0"/>
<path d="M127.747 259.981C128.717 260.121 129.579 260.448 130.333 260.961C131.107 261.477 131.676 262.156 132.039 262.996C132.423 263.84 132.538 264.786 132.386 265.835L131.042 275.129L129.023 274.837L130.239 266.434C130.637 263.683 129.608 262.129 127.154 261.774C125.729 261.568 124.587 261.918 123.728 262.825C122.87 263.731 122.317 265.035 122.071 266.738L121.066 273.685L119.047 273.393L122.165 251.838L124.184 252.13L122.741 262.106C123.345 261.284 124.067 260.691 124.908 260.328C125.771 259.948 126.718 259.832 127.747 259.981Z" fill="#FFE9D0"/>
<path d="M139.623 260.783C140.883 260.772 142.025 261.072 143.051 261.683C144.076 262.294 144.883 263.137 145.473 264.212C146.062 265.267 146.363 266.454 146.374 267.774C146.378 268.154 146.37 268.444 146.352 268.644L134.802 268.746C134.895 270.185 135.376 271.411 136.245 272.423C137.114 273.436 138.288 273.935 139.768 273.922C140.968 273.912 141.956 273.683 142.732 273.236C143.528 272.769 144.162 272.134 144.635 271.33L146.265 272.395C145.614 273.441 144.751 274.269 143.677 274.878C142.602 275.468 141.324 275.769 139.844 275.782C138.484 275.794 137.272 275.484 136.206 274.854C135.14 274.223 134.303 273.34 133.693 272.206C133.083 271.071 132.771 269.784 132.759 268.344C132.746 266.904 133.025 265.611 133.595 264.466C134.185 263.321 134.997 262.424 136.031 261.775C137.086 261.126 138.283 260.795 139.623 260.783ZM144.327 266.982C144.114 265.524 143.615 264.438 142.829 263.725C142.042 262.992 140.979 262.631 139.639 262.643C138.339 262.655 137.273 263.084 136.44 263.931C135.627 264.758 135.116 265.803 134.908 267.065L144.327 266.982Z" fill="#FFE9D0"/>
<path d="M156.491 259.732L158.391 259.458L153.739 280.376L151.72 280.667L153.099 274.679L145.356 261.337L147.464 261.033L153.728 271.89L156.491 259.732Z" fill="#FFE9D0"/>
<path d="M157.367 256.468C157.941 255.559 158.231 254.438 158.238 253.103C157.789 253.205 157.374 253.134 156.991 252.893C156.628 252.646 156.396 252.299 156.295 251.85C156.198 251.421 156.26 251.017 156.483 250.639C156.724 250.257 157.06 250.017 157.489 249.92C157.957 249.815 158.371 249.875 158.729 250.102C159.108 250.324 159.352 250.679 159.462 251.167C159.691 252.181 159.665 253.202 159.384 254.229C159.103 255.256 158.618 256.062 157.93 256.648L157.367 256.468Z" fill="#FFE9D0"/>
<path d="M167.521 271.53L161.767 250.523L163.735 249.984L169.489 270.991L167.521 271.53Z" fill="#FFE9D0"/>
<path d="M173.892 269.644L167.061 248.963L168.998 248.323L175.829 269.004L173.892 269.644Z" fill="#FFE9D0"/>
<path d="M185.659 265.16L176.807 245.259L178.671 244.43L187.523 264.33L185.659 265.16Z" fill="#FFE9D0"/>
<path d="M196.408 260.409C195.232 261.052 194.026 261.348 192.789 261.296C191.552 261.243 190.396 260.861 189.323 260.149C188.239 259.42 187.352 258.424 186.661 257.16C185.969 255.897 185.609 254.635 185.58 253.374C185.559 252.086 185.851 250.912 186.455 249.851C187.078 248.781 187.977 247.924 189.152 247.28C190.328 246.637 191.534 246.341 192.771 246.394C194.008 246.446 195.164 246.828 196.237 247.54C197.311 248.252 198.194 249.239 198.885 250.502C199.577 251.766 199.933 253.041 199.954 254.329C199.993 255.608 199.701 256.782 199.078 257.853C198.473 258.913 197.583 259.765 196.408 260.409ZM195.462 258.806C196.304 258.345 196.934 257.727 197.353 256.95C197.789 256.164 197.985 255.293 197.94 254.337C197.896 253.381 197.614 252.429 197.096 251.482C196.577 250.535 195.927 249.785 195.146 249.232C194.364 248.679 193.525 248.375 192.628 248.319C191.748 248.253 190.887 248.451 190.045 248.912C189.221 249.363 188.599 249.977 188.181 250.753C187.762 251.53 187.575 252.396 187.62 253.352C187.655 254.291 187.931 255.233 188.45 256.181C188.978 257.146 189.633 257.904 190.414 258.457C191.196 259.01 192.026 259.319 192.906 259.385C193.785 259.45 194.637 259.258 195.462 258.806Z" fill="#FFE9D0"/>
<path d="M203.449 238.812L205.152 237.635L208.943 252.083L207.092 253.363L194.937 244.699L196.689 243.487L206.834 250.879L203.449 238.812Z" fill="#FFE9D0"/>
<path d="M209.943 233.027C210.902 232.21 211.971 231.707 213.149 231.518C214.328 231.329 215.488 231.457 216.63 231.903C217.759 232.334 218.751 233.052 219.607 234.057C219.853 234.347 220.034 234.574 220.148 234.739L211.354 242.227C212.349 243.272 213.504 243.904 214.82 244.123C216.136 244.342 217.358 243.972 218.484 243.012C219.398 242.234 220.009 241.425 220.318 240.584C220.629 239.715 220.707 238.82 220.554 237.9L222.488 237.672C222.66 238.892 222.529 240.08 222.096 241.237C221.649 242.379 220.863 243.43 219.736 244.389C218.7 245.271 217.572 245.812 216.35 246.012C215.128 246.212 213.919 246.072 212.723 245.593C211.527 245.114 210.462 244.327 209.529 243.23C208.595 242.134 207.98 240.964 207.682 239.72C207.4 238.463 207.447 237.254 207.824 236.092C208.216 234.917 208.922 233.896 209.943 233.027ZM217.528 234.763C216.43 233.781 215.35 233.269 214.289 233.227C213.216 233.169 212.169 233.574 211.148 234.443C210.159 235.286 209.616 236.3 209.521 237.484C209.429 238.64 209.707 239.769 210.356 240.871L217.528 234.763Z" fill="#FFE9D0"/>
<path d="M193.083 210.432C193.083 217.277 187.048 223 179.528 223H99.4721C91.9515 223 85.9165 217.277 85.9165 210.432V152.765C85.9165 145.92 91.9515 140.197 99.4721 140.197H179.528C187.048 140.197 193.083 145.92 193.083 152.765V210.432Z" fill="#FDD888" stroke="black" stroke-width="2"/>
<path d="M204 142.589C204 149.435 197.965 155.158 190.444 155.158H88.5556C81.035 155.158 75 149.435 75 142.589C75 135.744 81.035 130.021 88.5556 130.021H190.444C197.965 130.021 204 135.744 204 142.589Z" fill="#FDD888" stroke="black" stroke-width="2"/>
<path d="M87 156H192V163H87V156Z" fill="#FCAB40"/>
<path d="M187.692 122.607L187.691 122.606L180.36 110.649C179.839 109.767 179.127 109.003 178.274 108.406C177.418 107.806 176.44 107.386 175.404 107.17C174.369 106.954 173.296 106.946 172.257 107.146C171.221 107.346 170.239 107.75 169.375 108.334L144.918 124.292C144.048 124.86 143.36 125.447 142.918 126.047C142.483 126.635 142.173 127.401 142.442 128.198C142.705 128.977 143.402 129.417 144.094 129.658C144.808 129.907 145.719 130.021 146.778 130.021H183.167C185.355 130.021 187.177 129.294 188.096 127.82C189.032 126.319 188.801 124.42 187.692 122.607ZM132.223 130.021C133.282 130.021 134.193 129.907 134.907 129.658C135.598 129.417 136.295 128.977 136.559 128.198C136.828 127.401 136.517 126.635 136.083 126.047C135.64 125.447 134.953 124.86 134.083 124.292C134.083 124.292 134.083 124.292 134.082 124.292L109.629 108.334C108.766 107.75 107.784 107.346 106.748 107.145C105.708 106.944 104.635 106.952 103.6 107.168C102.564 107.384 101.585 107.805 100.73 108.405C99.8766 109.003 99.1645 109.767 98.6444 110.65L91.3132 122.609C90.202 124.421 89.9694 126.319 90.9048 127.82C91.8232 129.294 93.6461 130.021 95.8337 130.021H132.223Z" fill="#DA2F47" stroke="black" stroke-width="2"/>
<path d="M135.861 116.452H143.139C145.791 116.452 148.321 117.435 150.176 119.164C152.029 120.891 153.055 123.218 153.055 125.628V223H125.944V125.628C125.944 123.218 126.971 120.891 128.824 119.164C130.679 117.435 133.209 116.452 135.861 116.452Z" fill="#DA2F47" stroke="black" stroke-width="2"/>
<path d="M242.535 159.089C239.338 150.584 228.949 154.386 228 158.638C226.701 154.136 216.562 150.784 213.465 159.089C210.019 168.344 226.801 176.649 228 178C229.199 176.899 245.981 168.194 242.535 159.089" fill="#F7A08E"/>
<path d="M65.5345 159.089C62.3379 150.584 51.949 154.386 51 158.638C49.7014 154.136 39.5622 150.784 36.4655 159.089C33.0191 168.344 49.8013 176.649 51 178C52.1987 176.899 68.9809 168.194 65.5345 159.089" fill="#F7A08E"/>
<path d="M42.8353 94.865C44.3972 95.0618 45.9024 95.6362 47.3509 96.5882C48.7994 97.5402 49.9238 98.694 50.724 100.05C51.502 101.391 51.9362 102.745 52.0265 104.113C52.2371 106.9 51.6907 109.285 50.3872 111.268L47.641 115.447L51.4182 117.929C51.9308 118.266 52.3061 118.545 52.5443 118.765C52.7747 118.948 52.9985 119.239 53.2156 119.637C53.6123 120.344 53.3419 121.411 52.4046 122.837C51.3793 124.397 50.3666 125.04 49.3663 124.765C48.8996 124.65 48.2762 124.336 47.4963 123.824L28.9444 111.631C28.4318 111.294 28.0603 111.034 27.8298 110.85C27.5917 110.63 27.3641 110.321 27.147 109.923C26.7503 109.216 27.0207 108.149 27.9581 106.722L32.6595 99.5691C33.9483 97.6081 35.9137 96.1714 38.5555 95.2592C39.8468 94.7995 41.2734 94.6681 42.8353 94.865ZM44.4926 107.346C44.932 106.678 45.1189 105.859 45.0534 104.891C44.9878 103.922 44.4648 103.116 43.4843 102.471C42.5038 101.827 41.556 101.667 40.641 101.991C39.7037 102.3 39.0081 102.8 38.554 103.491L35.8079 107.669L41.7245 111.558L44.4926 107.346Z" fill="#F8C495"/>
<path d="M69.6422 82.5638C70.7633 83.7425 71.3 84.9065 71.2523 86.0559C71.2056 87.1676 70.8248 88.0634 70.1099 88.7434L63.2409 95.2769C63.7555 95.818 64.5062 95.9688 65.493 95.7294C66.4798 95.4901 67.2921 95.0671 67.9297 94.4606C69.0504 93.3947 69.8193 92.4426 70.2364 91.6042L70.4449 91.185C70.7065 90.5314 70.9918 90.0576 71.301 89.7635C71.9193 89.1754 72.8642 89.1047 74.1356 89.5515C74.883 89.8343 75.4313 90.1593 75.7805 90.5264C77.4162 92.2461 76.1762 95.0632 72.0606 98.9778C70.6307 100.338 69.1257 101.309 67.5456 101.892C65.9664 102.437 64.4817 102.598 63.0915 102.375C60.3855 101.968 58.1136 100.798 56.2758 98.8656C53.9601 96.431 52.8957 93.7448 53.0824 90.8069C53.27 87.8314 54.5425 85.2226 56.8998 82.9804C59.5856 80.4258 62.457 79.498 65.514 80.197C67.1267 80.5769 68.5027 81.3658 69.6422 82.5638ZM64.3262 89.2211C65.0604 88.5227 65.1335 87.8644 64.5454 87.2461C64.1227 86.8016 63.6088 86.6096 63.0037 86.6699C62.4179 86.7118 61.8062 87.036 61.1686 87.6425C60.5502 88.2306 60.18 89.0796 60.058 90.1894C59.9175 91.2799 60.1229 92.1149 60.6743 92.6946L64.3262 89.2211Z" fill="#F8C495"/>
<path d="M81.2815 65.8419C81.7958 65.7083 82.2947 65.726 82.7783 65.8949C83.2703 66.0271 83.743 66.4547 84.1962 67.1777C84.6495 67.9006 84.9306 68.826 85.0396 69.9537C85.1486 71.0814 84.7964 71.9002 83.983 72.4101C83.5764 72.6651 83.1243 72.8226 82.6269 72.8826C82.1521 72.9285 81.6097 73.1427 80.9996 73.5251C80.3896 73.9076 79.948 74.4834 79.6749 75.2527C79.4244 76.0077 79.4904 76.6903 79.8728 77.3003L84.3347 84.4173C84.6605 84.9369 84.8858 85.3465 85.0106 85.6459C85.1438 85.9086 85.2263 86.2661 85.258 86.7183C85.2874 87.5182 84.5904 88.3644 83.167 89.2567C82.0825 89.9367 81.1826 90.2333 80.4674 90.1467C79.9076 90.057 79.3997 89.6987 78.9437 89.0718C78.8021 88.8459 78.5967 88.5183 78.3275 88.089L70.8698 76.1935C70.544 75.6738 70.3145 75.2827 70.1812 75.02C70.0565 74.7205 69.974 74.3631 69.9338 73.9476C69.8677 73.1393 70.5576 72.2818 72.0036 71.3753C73.3592 70.5254 74.3694 70.254 75.0341 70.5612C75.5092 70.7669 75.8672 71.0618 76.108 71.4459C76.1218 71.2169 76.1596 70.9257 76.2213 70.5723C76.3056 70.2047 76.5775 69.6093 77.0371 68.7861C77.4967 67.9629 77.9863 67.3884 78.506 67.0626C79.0482 66.7227 79.5214 66.4733 79.9253 66.3144C80.3152 66.133 80.7672 65.9754 81.2815 65.8419Z" fill="#F8C495"/>
<path d="M99.7148 57.43C101.424 56.748 102.615 56.8182 103.287 57.6407C103.624 58.052 103.945 58.6415 104.252 59.4093C104.558 60.177 104.719 60.8308 104.733 61.3706C104.762 61.8757 104.643 62.2965 104.376 62.633C103.974 63.1378 103.278 63.5879 102.287 63.9833L99.8504 64.7837L103.824 74.74C104.2 75.6811 104.358 76.4364 104.298 77.0058C104.253 77.5406 104.012 77.9811 103.576 78.3274C103.165 78.6638 102.576 78.9852 101.808 79.2917C101.04 79.5981 100.391 79.7709 99.8613 79.8101C99.3463 79.8147 98.9205 79.6832 98.584 79.4155C98.2376 79.1231 97.9803 78.8382 97.8121 78.5607C97.6687 78.2734 97.4834 77.8449 97.256 77.2753L93.3267 67.4305L91.9893 67.9642C91.3256 68.1717 90.8081 68.206 90.4368 68.0671C89.7784 67.7843 89.1824 66.9742 88.6486 65.6368C87.838 63.6059 88.1633 62.2989 89.6246 61.7157L90.8505 61.2263L90.0647 59.2574C89.3035 57.3503 89.2976 55.3572 90.0469 53.278C90.7864 51.174 92.444 49.608 95.0197 48.5799C95.5893 48.3526 96.0203 48.2093 96.3125 48.1501C96.6196 48.0563 96.9984 48.0343 97.449 48.0841C98.2462 48.1392 98.9611 48.9593 99.5938 50.5443C100.068 51.7332 100.199 52.6716 99.9853 53.3598C99.7967 53.8944 99.3408 54.3348 98.6176 54.6809C98.3947 54.7699 98.0479 54.9083 97.5774 55.0961C96.661 55.4618 96.3264 55.9543 96.5735 56.5734L97.389 58.6167L99.7148 57.43Z" fill="#F8C495"/>
<path d="M129.624 58.6423C129.921 60.2417 129.735 61.5101 129.068 62.4474C128.423 63.3536 127.615 63.8967 126.645 64.0765L117.324 65.8049C117.46 66.539 118.007 67.075 118.964 67.4127C119.922 67.7505 120.833 67.8391 121.699 67.6787C123.219 67.3967 124.383 67.0182 125.19 66.5431L125.594 66.3056C126.169 65.9005 126.667 65.659 127.087 65.5812C127.926 65.4256 128.756 65.8819 129.578 66.95C130.05 67.5947 130.332 68.1661 130.425 68.6643C130.857 70.9979 128.281 72.6824 122.696 73.718C120.756 74.0778 118.965 74.0709 117.323 73.6974C115.702 73.2928 114.37 72.6177 113.326 71.672C111.281 69.8545 110.015 67.6348 109.529 65.0128C108.916 61.7091 109.489 58.8771 111.249 56.5168C113.029 54.1255 115.519 52.6332 118.718 52.0401C122.362 51.3643 125.275 52.1532 127.455 54.4067C128.6 55.6048 129.323 57.0167 129.624 58.6423ZM121.537 61.3216C122.533 61.1369 122.954 60.625 122.798 59.7859C122.686 59.1829 122.36 58.7416 121.82 58.462C121.307 58.1776 120.617 58.1156 119.752 58.276C118.913 58.4316 118.139 58.9412 117.432 59.8047C116.719 60.6419 116.436 61.4539 116.581 62.2405L121.537 61.3216Z" fill="#F8C495"/>
<path d="M141.393 61.0505C141.368 62.1703 141.723 63.0582 142.455 63.7142C143.188 64.3436 143.968 64.6673 144.795 64.6852C145.648 64.7038 146.439 64.4809 147.17 64.0166C147.927 63.5263 148.533 63.286 148.986 63.2959C149.786 63.3133 150.743 64.0409 151.859 65.4788C152.455 66.2652 152.747 66.9651 152.734 67.5783C152.712 68.5914 151.958 69.5219 150.473 70.3698C148.93 71.4033 147.052 71.8959 144.839 71.8479C142.36 71.794 139.993 70.8491 137.739 69.0131C136.664 68.1362 135.796 66.9838 135.133 65.5557C134.472 64.101 134.159 62.5205 134.196 60.8142C134.234 59.0813 134.614 57.5292 135.338 56.1579C136.061 54.76 136.979 53.6463 138.091 52.8169C140.342 51.1054 142.72 50.2768 145.226 50.3312C146.239 50.3532 147.223 50.5213 148.176 50.8354C149.13 51.1228 149.831 51.4048 150.278 51.6812L150.909 52.095C151.382 52.4254 151.75 52.6867 152.013 52.8791C152.694 53.4274 153.028 54.0481 153.012 54.7413C152.998 55.4078 152.702 56.1615 152.123 57.0025C151.132 58.448 150.196 59.1612 149.316 59.1421C148.809 59.1311 148.096 58.8222 147.176 58.2154C146.706 57.7518 146.017 57.5101 145.111 57.4904C144.231 57.4713 143.398 57.7733 142.611 58.3963C141.824 59.0194 141.418 59.9041 141.393 61.0505Z" fill="#F8C495"/>
<path d="M169.366 60.956L166.853 60.2709L165.731 65.6757C165.585 66.3807 165.583 66.9115 165.727 67.2682C165.897 67.6303 166.282 67.8737 166.883 67.9983C167.51 68.1284 167.974 68.2521 168.277 68.3693C168.611 68.4659 168.939 68.6566 169.261 68.9413C169.791 69.4054 169.91 70.3424 169.617 71.7524C169.275 73.3973 168.701 74.3267 167.894 74.5404C167.465 74.6419 167.088 74.6862 166.764 74.6734C166.471 74.6399 166.038 74.5635 165.463 74.4443C162.748 73.8806 160.812 72.8389 159.657 71.319C158.502 69.7991 158.228 67.5771 158.835 64.6527L160.038 58.8563C159.526 58.8317 158.982 58.7597 158.408 58.6405C157.834 58.5212 157.397 58.199 157.097 57.6739C156.824 57.1541 156.798 56.359 157.02 55.2885C157.242 54.2179 157.468 53.4612 157.696 53.0184C157.929 52.5494 158.185 52.2348 158.464 52.0747C158.952 51.822 159.509 51.7607 160.136 51.8908L161.396 52.3157L162.233 48.2817C162.358 47.6812 162.463 47.24 162.549 46.9582C162.661 46.6819 162.856 46.3957 163.136 46.0996C163.61 45.5173 164.683 45.3996 166.355 45.7465C168.13 46.115 169.087 46.8176 169.226 47.8541C169.27 48.299 169.197 48.9783 169.007 49.8922L168.211 53.7304C169.381 53.8644 170.254 53.991 170.828 54.1103C171.428 54.2349 171.867 54.3532 172.143 54.465C172.451 54.5562 172.779 54.7468 173.128 55.037C173.736 55.5174 173.867 56.5931 173.52 58.2641C173.178 59.909 172.617 60.8411 171.836 61.0603C171.407 61.1618 171.03 61.2061 170.706 61.1933C170.413 61.1598 169.967 61.0807 169.366 60.956Z" fill="#F8C495"/>
<path d="M203.722 71.5872L209.777 75.1784C210.988 75.9589 211.555 76.7289 211.476 77.4885C211.447 78.0603 211.181 78.7705 210.678 79.6191L206.189 87.188C205.753 87.922 205.017 88.4311 203.981 88.7153C200.87 89.5681 197.389 88.8518 193.536 86.5664C190.118 84.5395 187.91 81.4935 186.91 77.4283C185.924 73.3402 186.513 69.4727 188.676 65.8259C190.839 62.179 193.926 59.9018 197.936 58.9941C201.961 58.0636 205.716 58.6321 209.202 60.6998C211.909 62.305 213.936 64.7163 215.283 67.9336C215.63 68.7597 215.634 69.4594 215.294 70.0328C214.967 70.5832 214.323 71.069 213.36 71.4901C211.744 72.1752 210.57 72.3 209.836 71.8647C209.4 71.6063 208.884 70.8817 208.288 69.6911C207.705 68.4776 206.749 67.4763 205.419 66.6873C203.676 65.6535 201.76 65.3545 199.672 65.7905C197.598 66.2035 195.969 67.4077 194.786 69.4031C193.616 71.3756 193.304 73.4695 193.851 75.6848C194.411 77.8772 195.562 79.4903 197.305 80.5241C198.567 81.2723 199.824 81.7393 201.078 81.925L203.303 78.1749L200.585 76.5629C199.874 76.1412 199.424 75.7502 199.234 75.3899C199.045 75.0295 199.006 74.6502 199.119 74.2517C199.245 73.8303 199.484 73.3214 199.838 72.7251C200.205 72.1058 200.544 71.6399 200.853 71.3274C201.185 71.0284 201.53 70.8917 201.887 70.9174C202.422 70.9558 203.034 71.1791 203.722 71.5872Z" fill="#F8C495"/>
<path d="M217.679 81.8412C218.086 81.3828 218.398 81.0529 218.612 80.8514C218.865 80.6477 219.194 80.4584 219.599 80.2835C220.339 80.0134 221.346 80.4453 222.622 81.5793C223.578 82.4297 224.105 83.2016 224.203 83.8947C224.294 84.4749 224.092 85.0629 223.598 85.6585C223.441 85.8756 223.194 86.1734 222.857 86.552L213.555 97.0149C213.148 97.4733 212.818 97.8043 212.565 98.008C212.35 98.2095 212.03 98.3889 211.605 98.5461C210.885 98.8339 209.888 98.4108 208.612 97.2769C207.357 96.1606 206.829 95.2094 207.028 94.4233C207.154 94.0003 207.295 93.6615 207.45 93.4068C207.625 93.1699 207.925 92.8123 208.35 92.334L217.679 81.8412ZM227.498 80.6695C227.111 80.8245 226.675 80.7935 226.19 80.5764C225.705 80.3593 225.143 79.9673 224.506 79.4003C223.888 78.8511 223.443 78.3483 223.17 77.8921C222.898 77.4359 222.815 76.9874 222.921 76.5467C223.048 76.1238 223.188 75.785 223.343 75.5303C223.536 75.2734 223.836 74.9158 224.244 74.4574C224.651 73.9991 224.962 73.6691 225.177 73.4676C225.43 73.2639 225.75 73.0846 226.137 72.9296C226.895 72.6395 227.911 73.0615 229.186 74.1955C230.442 75.3117 230.96 76.2541 230.741 77.0225C230.634 77.4632 230.485 77.812 230.292 78.0688C230.137 78.3235 229.856 78.68 229.448 79.1384C229.041 79.5967 228.711 79.9278 228.458 80.1315C228.244 80.333 227.924 80.5123 227.498 80.6695Z" fill="#F8C495"/>
<path d="M237.926 97.9082C239.112 99.3156 239.42 100.468 238.851 101.366C238.566 101.814 238.108 102.305 237.476 102.837C236.843 103.37 236.273 103.728 235.766 103.912C235.295 104.099 234.859 104.118 234.455 103.97C233.849 103.748 233.203 103.229 232.516 102.413L230.989 100.352L222.79 107.257C222.015 107.91 221.348 108.298 220.788 108.42C220.266 108.546 219.773 108.456 219.307 108.151C218.858 107.867 218.367 107.409 217.835 106.776C217.302 106.144 216.934 105.583 216.73 105.092C216.563 104.605 216.554 104.159 216.702 103.755C216.871 103.334 217.06 103.001 217.271 102.754C217.498 102.527 217.847 102.216 218.316 101.821L226.423 94.9927L225.496 93.8913C225.09 93.3267 224.894 92.8463 224.909 92.4501C224.971 91.7362 225.552 90.9154 226.653 89.9878C228.326 88.5792 229.669 88.4765 230.682 89.6799L231.533 90.6895L233.154 89.3238C234.725 88.0011 236.615 87.3681 238.824 87.4248C241.054 87.4644 243.062 88.5448 244.849 90.666C245.244 91.1351 245.515 91.499 245.664 91.7577C245.849 92.0197 245.989 92.3723 246.084 92.8157C246.283 93.5897 245.729 94.5264 244.424 95.6259C243.445 96.4504 242.595 96.8697 241.875 96.8837C241.308 96.873 240.746 96.5789 240.19 96.0014C240.036 95.8178 239.795 95.5323 239.469 95.1448C238.833 94.3901 238.26 94.2275 237.751 94.6569L236.068 96.0742L237.926 97.9082Z" fill="#F8C495"/>
<path d="M242.836 118.604L241.669 116.275L236.896 119.046C236.273 119.408 235.877 119.761 235.707 120.106C235.551 120.475 235.627 120.924 235.935 121.454C236.256 122.008 236.474 122.436 236.589 122.74C236.74 123.053 236.817 123.425 236.82 123.855C236.828 124.559 236.209 125.273 234.964 125.996C233.511 126.839 232.436 127.032 231.738 126.574C231.376 126.322 231.091 126.071 230.884 125.821C230.714 125.58 230.481 125.206 230.187 124.699C228.794 122.301 228.279 120.164 228.639 118.29C229 116.415 230.472 114.728 233.055 113.228L238.175 110.256C237.851 109.858 237.542 109.405 237.247 108.898C236.953 108.39 236.901 107.85 237.092 107.276C237.297 106.726 237.872 106.176 238.818 105.627C239.763 105.078 240.477 104.741 240.959 104.615C241.464 104.476 241.869 104.457 242.174 104.557C242.688 104.752 243.106 105.126 243.427 105.68L243.952 106.902L247.515 104.833C248.045 104.525 248.444 104.309 248.711 104.185C248.991 104.084 249.335 104.038 249.742 104.049C250.492 104.014 251.296 104.734 252.153 106.21C253.064 107.778 253.179 108.96 252.5 109.755C252.198 110.085 251.643 110.484 250.836 110.952L247.446 112.921C248.128 113.882 248.616 114.616 248.91 115.123C249.218 115.654 249.423 116.059 249.524 116.34C249.661 116.63 249.738 117.001 249.755 117.455C249.803 118.228 249.089 119.043 247.613 119.9C246.161 120.744 245.092 120.948 244.408 120.513C244.045 120.261 243.761 120.01 243.554 119.76C243.384 119.519 243.144 119.134 242.836 118.604Z" fill="#F8C495"/>
</svg>
