<svg width="25" height="26" viewBox="0 0 25 26" fill="none" xmlns="http://www.w3.org/2000/svg">
<path d="M9.99688 0C15.4614 0 19.8882 4.61952 19.8882 10.3165C19.891 12.1933 19.4006 14.035 18.4701 15.6414L23.2657 20.6432L23.249 20.6606C23.7608 21.1716 24.0752 21.897 24.0752 22.7168C24.0755 24.3007 22.8657 25.5394 21.3487 25.539C20.5738 25.5387 19.8808 25.2154 19.3862 24.6892L19.3742 24.7018L14.4262 19.5407C13.0518 20.2604 11.5348 20.6345 9.99688 20.6329C4.5321 20.6329 0.106176 16.014 0.106176 10.3165C0.106176 4.61952 4.53241 0 9.99688 0ZM9.93692 16.5763C13.3524 16.5763 16.1191 13.6896 16.1191 10.1285C16.1191 6.56804 13.3524 3.68072 9.93692 3.68072C6.52143 3.68072 3.75534 6.56771 3.75534 10.1285C3.75503 13.6896 6.52143 16.5763 9.93692 16.5763Z" fill="#989898"/>
</svg>
