<!--
Make sure to make a class for this icon and apply something like:
    .magnifyGlass {
        fill: rgb(114, 214, 201);
    } 
in the css file to see it with color!
-->
<svg width="18" height="19" viewBox="0 0 28 29" fill="none" xmlns="http://www.w3.org/2000/svg">
    <path d="M11.5196 0C17.884 0 23.0399 5.15844 23.0399 11.52C23.0432 13.6158 22.472 15.6723 21.3883 17.4661L26.9737 23.0515L26.9542 23.071C27.5504 23.6416 27.9165 24.4516 27.9165 25.367C27.9169 27.1357 26.5078 28.5188 24.7409 28.5185C23.8384 28.5181 23.0313 28.157 22.4553 27.5695L22.4413 27.5836L16.6784 21.8203C15.0776 22.6241 13.3108 23.0418 11.5196 23.04C5.15479 23.04 -5.72205e-05 17.8823 -5.72205e-05 11.52C-5.72205e-05 5.15844 5.15515 0 11.5196 0ZM11.4497 18.5101C15.4277 18.5101 18.6501 15.2867 18.6501 11.3101C18.6501 7.33428 15.4277 4.11012 11.4497 4.11012C7.47175 4.11012 4.2501 7.33392 4.2501 11.3101C4.24974 15.2867 7.47175 18.5101 11.4497 18.5101Z"/>
</svg>