<svg width="145" height="145" viewBox="0 0 208 208" fill="none" xmlns="http://www.w3.org/2000/svg">
<g filter="url(#filter0_d)">
<path d="M104 200C159.228 200 204 155.228 204 100C204 44.7715 159.228 0 104 0C48.7715 0 4 44.7715 4 100C4 155.228 48.7715 200 104 200Z" fill="#FFCC4D"/>
<path d="M160.686 92.4837C159.52 92.4836 158.384 92.1165 157.439 91.4344C156.494 90.7524 155.787 89.7899 155.419 88.6837C154.292 85.3559 149.758 75.817 144.019 75.817C138.119 75.817 133.525 85.967 132.619 88.6837C132.396 89.3846 132.035 90.0342 131.558 90.5946C131.082 91.1551 130.498 91.6152 129.842 91.9484C129.186 92.2816 128.471 92.4812 127.737 92.5355C127.003 92.5899 126.266 92.498 125.568 92.2651C124.87 92.0322 124.226 91.663 123.671 91.1789C123.117 90.6948 122.665 90.1055 122.34 89.4451C122.016 88.7848 121.826 88.0666 121.781 87.3321C121.737 86.5977 121.838 85.8618 122.081 85.167C122.781 83.0781 129.325 64.7059 144.019 64.7059C158.714 64.7059 165.258 83.0781 165.953 85.1726C166.231 86.0073 166.307 86.8961 166.174 87.7659C166.041 88.6356 165.704 89.4615 165.19 90.1753C164.675 90.8892 163.999 91.4708 163.216 91.8721C162.433 92.2734 161.566 92.483 160.686 92.4837ZM82.4198 92.5355C80.092 92.5355 77.9254 91.0633 77.1476 88.7355C76.0198 85.4078 71.4976 75.8689 65.7531 75.8689C59.8531 75.8689 55.2643 86.0189 54.3587 88.7355C53.8924 90.1331 52.8899 91.2881 51.572 91.9466C50.254 92.6051 48.7285 92.713 47.3309 92.2466C45.9334 91.7803 44.7783 90.7779 44.1199 89.4599C43.4614 88.142 43.3535 86.6164 43.8198 85.2189C44.5143 83.13 51.0587 64.7577 65.7531 64.7577C80.4476 64.7577 86.992 83.13 87.692 85.2244C87.9702 86.0596 88.0459 86.9489 87.913 87.8191C87.78 88.6893 87.4421 89.5155 86.9273 90.2295C86.4124 90.9435 85.7352 91.5249 84.9515 91.9258C84.1678 92.3268 83.3001 92.5357 82.4198 92.5355Z" fill="#664500"/>
<path d="M84.8694 132.174C84.8694 133.478 87.0434 152.218 104.725 152.218C122.407 152.218 123.565 133.478 124 132.174C124 132.174 124 130.87 122.696 130.87C121.391 130.87 87.2849 130.87 86.1739 130.87C84.8695 130.87 84.8694 132.174 84.8694 132.174Z" fill="#664500"/>
</g>
<defs>
<filter id="filter0_d" x="0" y="0" width="208" height="208" filterUnits="userSpaceOnUse" color-interpolation-filters="sRGB">
<feFlood flood-opacity="0" result="BackgroundImageFix"/>
<feColorMatrix in="SourceAlpha" type="matrix" values="0 0 0 0 0 0 0 0 0 0 0 0 0 0 0 0 0 0 127 0"/>
<feOffset dy="4"/>
<feGaussianBlur stdDeviation="2"/>
<feColorMatrix type="matrix" values="0 0 0 0 0 0 0 0 0 0 0 0 0 0 0 0 0 0 0.25 0"/>
<feBlend mode="normal" in2="BackgroundImageFix" result="effect1_dropShadow"/>
<feBlend mode="normal" in="SourceGraphic" in2="effect1_dropShadow" result="shape"/>
</filter>
</defs>
</svg>
