<svg width="482" height="87" viewBox="0 0 482 87" fill="none" xmlns="http://www.w3.org/2000/svg">
<path d="M119.275 27.88C120.523 30.424 121.147 33.256 121.147 36.376C121.147 39.496 120.523 42.328 119.275 44.872C118.027 47.368 116.419 49.36 114.451 50.848C110.467 53.92 106.339 55.456 102.067 55.456H93.067V63.592C93.067 64.696 93.019 65.536 92.923 66.112C92.875 66.64 92.659 67.264 92.275 67.984C91.603 69.28 89.731 69.928 86.659 69.928C83.299 69.928 81.331 69.04 80.755 67.264C80.467 66.448 80.323 65.2 80.323 63.52V23.56C80.323 22.456 80.347 21.64 80.395 21.112C80.491 20.536 80.731 19.888 81.115 19.168C81.787 17.872 83.659 17.224 86.731 17.224H102.139C106.363 17.224 110.467 18.76 114.451 21.832C116.419 23.32 118.027 25.336 119.275 27.88ZM102.139 42.712C103.579 42.712 104.995 42.184 106.387 41.128C107.779 40.072 108.475 38.488 108.475 36.376C108.475 34.264 107.779 32.68 106.387 31.624C104.995 30.52 103.555 29.968 102.067 29.968H93.067V42.712H102.139ZM160.211 46.528C160.211 49.456 159.467 51.64 157.979 53.08C156.539 54.472 154.931 55.168 153.155 55.168H136.091C136.091 56.512 136.883 57.64 138.467 58.552C140.051 59.464 141.635 59.92 143.219 59.92C146.003 59.92 148.187 59.632 149.771 59.056L150.563 58.768C151.715 58.24 152.675 57.976 153.443 57.976C154.979 57.976 156.299 59.056 157.403 61.216C158.027 62.512 158.339 63.616 158.339 64.528C158.339 68.8 153.227 70.936 143.003 70.936C139.451 70.936 136.283 70.336 133.499 69.136C130.763 67.888 128.627 66.256 127.091 64.24C124.067 60.352 122.555 56.008 122.555 51.208C122.555 45.16 124.499 40.336 128.387 36.736C132.323 33.088 137.219 31.264 143.075 31.264C149.747 31.264 154.643 33.616 157.763 38.32C159.395 40.816 160.211 43.552 160.211 46.528ZM145.019 48.616C146.843 48.616 147.755 47.848 147.755 46.312C147.755 45.208 147.323 44.32 146.459 43.648C145.643 42.976 144.443 42.64 142.859 42.64C141.323 42.64 139.787 43.288 138.251 44.584C136.715 45.832 135.947 47.176 135.947 48.616H145.019ZM190.685 32.488C191.597 32.776 192.341 33.28 192.917 34C193.541 34.672 193.853 35.776 193.853 37.312C193.853 38.848 193.397 40.528 192.485 42.352C191.573 44.176 190.253 45.088 188.525 45.088C187.661 45.088 186.821 44.896 186.005 44.512C185.237 44.128 184.205 43.936 182.909 43.936C181.613 43.936 180.389 44.392 179.237 45.304C178.133 46.216 177.581 47.32 177.581 48.616V63.736C177.581 64.84 177.533 65.68 177.437 66.256C177.389 66.784 177.173 67.408 176.789 68.128C176.069 69.376 174.197 70 171.173 70C168.869 70 167.213 69.592 166.205 68.776C165.437 68.104 165.005 67.072 164.909 65.68C164.909 65.2 164.909 64.504 164.909 63.592V38.32C164.909 37.216 164.933 36.4 164.981 35.872C165.077 35.296 165.293 34.672 165.629 34C166.301 32.704 168.173 32.056 171.245 32.056C174.125 32.056 175.925 32.608 176.645 33.712C177.173 34.48 177.437 35.272 177.437 36.088C177.677 35.752 178.013 35.344 178.445 34.864C178.925 34.384 179.909 33.736 181.397 32.92C182.885 32.104 184.181 31.696 185.285 31.696C186.437 31.696 187.397 31.768 188.165 31.912C188.933 32.008 189.773 32.2 190.685 32.488ZM219.991 32.128C223.303 32.128 225.247 33.04 225.823 34.864C226.111 35.776 226.255 36.976 226.255 38.464C226.255 39.952 226.087 41.152 225.751 42.064C225.463 42.928 224.983 43.552 224.311 43.936C223.303 44.512 221.839 44.8 219.919 44.8L215.311 44.512V63.808C215.311 65.632 215.071 67 214.591 67.912C214.159 68.776 213.463 69.352 212.503 69.64C211.591 69.928 210.391 70.072 208.903 70.072C207.415 70.072 206.215 69.928 205.303 69.64C204.439 69.304 203.815 68.8 203.431 68.128C203.047 67.408 202.807 66.76 202.711 66.184C202.663 65.608 202.639 64.768 202.639 63.664V44.584H200.047C198.799 44.488 197.911 44.2 197.383 43.72C196.471 42.808 196.015 41.056 196.015 38.464C196.015 34.528 197.431 32.56 200.263 32.56H202.639V28.744C202.639 25.048 203.959 21.712 206.599 18.736C209.239 15.712 213.055 14.2 218.047 14.2C219.151 14.2 219.967 14.248 220.495 14.344C221.071 14.392 221.719 14.608 222.439 14.992C223.735 15.616 224.383 17.464 224.383 20.536C224.383 22.84 223.975 24.496 223.159 25.504C222.487 26.272 221.431 26.704 219.991 26.8C219.559 26.8 218.887 26.8 217.975 26.8C216.199 26.8 215.311 27.4 215.311 28.6V32.56L219.991 32.128ZM266.102 46.528C266.102 49.456 265.358 51.64 263.87 53.08C262.43 54.472 260.822 55.168 259.046 55.168H241.982C241.982 56.512 242.774 57.64 244.358 58.552C245.942 59.464 247.526 59.92 249.11 59.92C251.894 59.92 254.078 59.632 255.662 59.056L256.454 58.768C257.606 58.24 258.566 57.976 259.334 57.976C260.87 57.976 262.19 59.056 263.294 61.216C263.918 62.512 264.23 63.616 264.23 64.528C264.23 68.8 259.118 70.936 248.894 70.936C245.342 70.936 242.174 70.336 239.39 69.136C236.654 67.888 234.518 66.256 232.982 64.24C229.958 60.352 228.446 56.008 228.446 51.208C228.446 45.16 230.39 40.336 234.278 36.736C238.214 33.088 243.11 31.264 248.966 31.264C255.638 31.264 260.534 33.616 263.654 38.32C265.286 40.816 266.102 43.552 266.102 46.528ZM250.91 48.616C252.734 48.616 253.646 47.848 253.646 46.312C253.646 45.208 253.214 44.32 252.35 43.648C251.534 42.976 250.334 42.64 248.75 42.64C247.214 42.64 245.678 43.288 244.142 44.584C242.606 45.832 241.838 47.176 241.838 48.616H250.91ZM282.68 51.064C282.68 53.08 283.352 54.664 284.696 55.816C286.04 56.92 287.456 57.472 288.944 57.472C290.48 57.472 291.896 57.04 293.192 56.176C294.536 55.264 295.616 54.808 296.432 54.808C297.872 54.808 299.624 56.08 301.688 58.624C302.792 60.016 303.344 61.264 303.344 62.368C303.344 64.192 302.024 65.896 299.384 67.48C296.648 69.4 293.288 70.36 289.304 70.36C284.84 70.36 280.544 68.752 276.416 65.536C274.448 64 272.84 61.96 271.592 59.416C270.344 56.824 269.72 53.992 269.72 50.92C269.72 47.8 270.344 44.992 271.592 42.496C272.84 39.952 274.448 37.912 276.416 36.376C280.4 33.208 284.648 31.624 289.16 31.624C290.984 31.624 292.76 31.888 294.488 32.416C296.216 32.896 297.488 33.376 298.304 33.856L299.456 34.576C300.32 35.152 300.992 35.608 301.472 35.944C302.72 36.904 303.344 38.008 303.344 39.256C303.344 40.456 302.84 41.824 301.832 43.36C300.104 46 298.448 47.32 296.864 47.32C295.952 47.32 294.656 46.792 292.976 45.736C292.112 44.92 290.864 44.512 289.232 44.512C287.648 44.512 286.16 45.088 284.768 46.24C283.376 47.392 282.68 49 282.68 51.064ZM329.324 44.8L324.644 44.512V54.448C324.644 55.744 324.836 56.68 325.22 57.256C325.652 57.832 326.42 58.12 327.524 58.12C328.676 58.12 329.54 58.168 330.116 58.264C330.74 58.312 331.388 58.528 332.06 58.912C333.164 59.536 333.716 61.144 333.716 63.736C333.716 66.76 333.044 68.608 331.7 69.28C330.98 69.616 330.332 69.832 329.756 69.928C329.228 69.976 328.436 70 327.38 70C322.388 70 318.596 68.872 316.004 66.616C313.412 64.36 312.116 60.544 312.116 55.168V44.512C311.204 44.656 310.22 44.728 309.164 44.728C308.108 44.728 307.22 44.32 306.5 43.504C305.828 42.688 305.492 41.296 305.492 39.328C305.492 37.36 305.612 35.944 305.852 35.08C306.092 34.168 306.428 33.52 306.86 33.136C307.628 32.512 308.588 32.2 309.74 32.2L312.116 32.488V25.072C312.116 23.968 312.14 23.152 312.188 22.624C312.284 22.096 312.524 21.52 312.908 20.896C313.532 19.696 315.38 19.096 318.452 19.096C321.716 19.096 323.66 19.984 324.284 21.76C324.524 22.528 324.644 23.752 324.644 25.432V32.488C326.756 32.296 328.34 32.2 329.396 32.2C330.5 32.2 331.316 32.248 331.844 32.344C332.42 32.392 333.068 32.608 333.788 32.992C335.036 33.616 335.66 35.464 335.66 38.536C335.66 41.56 335.012 43.408 333.716 44.08C332.996 44.416 332.348 44.632 331.772 44.728C331.244 44.776 330.428 44.8 329.324 44.8ZM383.55 38.176H396.222C398.814 38.272 400.398 38.944 400.974 40.192C401.454 41.104 401.694 42.448 401.694 44.224V60.064C401.694 61.6 401.022 63.064 399.678 64.456C395.646 68.632 389.598 70.72 381.534 70.72C374.382 70.72 368.166 68.032 362.886 62.656C357.606 57.232 354.966 50.704 354.966 43.072C354.966 35.44 357.654 29.08 363.03 23.992C368.406 18.856 374.742 16.288 382.038 16.288C387.702 16.288 393.054 18.16 398.094 21.904C399.39 22.864 400.038 23.944 400.038 25.144C400.038 26.296 399.486 27.64 398.382 29.176C396.51 31.72 394.806 32.992 393.27 32.992C392.358 32.992 390.894 32.344 388.878 31.048C386.862 29.704 384.462 29.032 381.678 29.032C378.03 29.032 374.79 30.328 371.958 32.92C369.126 35.464 367.71 38.824 367.71 43C367.71 47.128 369.15 50.656 372.03 53.584C374.91 56.464 378.174 57.904 381.822 57.904C384.462 57.904 386.838 57.472 388.95 56.608V48.76H383.262C381.774 48.76 380.718 48.568 380.094 48.184C379.47 47.8 379.062 47.248 378.87 46.528C378.678 45.76 378.582 44.752 378.582 43.504C378.582 42.208 378.678 41.176 378.87 40.408C379.11 39.64 379.518 39.112 380.094 38.824C380.958 38.392 382.11 38.176 383.55 38.176ZM407.445 38.392C407.445 37.288 407.469 36.472 407.517 35.944C407.613 35.368 407.829 34.72 408.165 34C408.837 32.752 410.709 32.128 413.781 32.128C416.085 32.128 417.717 32.536 418.677 33.352C419.493 34.024 419.925 35.056 419.973 36.448C420.021 36.928 420.045 37.624 420.045 38.536V63.736C420.045 64.84 419.997 65.68 419.901 66.256C419.853 66.784 419.637 67.408 419.253 68.128C418.629 69.376 416.781 70 413.709 70C410.685 70 408.837 69.352 408.165 68.056C407.829 67.336 407.613 66.712 407.517 66.184C407.469 65.656 407.445 64.816 407.445 63.664V38.392ZM419.253 25.072C418.917 25.744 418.293 26.224 417.381 26.512C416.469 26.8 415.245 26.944 413.709 26.944C412.221 26.944 411.021 26.8 410.109 26.512C409.197 26.224 408.549 25.72 408.165 25C407.829 24.28 407.613 23.656 407.517 23.128C407.469 22.552 407.445 21.712 407.445 20.608C407.445 19.504 407.469 18.688 407.517 18.16C407.613 17.584 407.829 16.96 408.165 16.288C408.837 14.992 410.709 14.344 413.781 14.344C416.805 14.344 418.629 14.992 419.253 16.288C419.637 17.008 419.853 17.656 419.901 18.232C419.997 18.76 420.045 19.576 420.045 20.68C420.045 21.784 419.997 22.624 419.901 23.2C419.853 23.728 419.637 24.352 419.253 25.072ZM474.108 44.8L469.428 44.512V54.448C469.428 55.744 469.62 56.68 470.004 57.256C470.436 57.832 471.204 58.12 472.308 58.12C473.46 58.12 474.324 58.168 474.9 58.264C475.524 58.312 476.148 58.528 476.772 58.912C477.924 59.536 478.5 61.144 478.5 63.736C478.5 66.76 477.828 68.608 476.484 69.28C475.764 69.616 475.116 69.832 474.54 69.928C474.012 69.976 473.22 70 472.164 70C467.46 70 463.74 68.68 461.004 66.04C458.268 63.4 456.9 59.776 456.9 55.168V44.512C454.308 44.656 452.1 44.728 450.276 44.728L443.292 44.44V63.736C443.292 65.56 443.052 66.928 442.572 67.84C442.14 68.704 441.444 69.28 440.484 69.568C439.572 69.856 438.372 70 436.884 70C435.396 70 434.196 69.856 433.284 69.568C432.42 69.232 431.796 68.728 431.412 68.056C431.028 67.336 430.788 66.688 430.692 66.112C430.644 65.536 430.62 64.696 430.62 63.592V44.512C429.66 44.656 428.652 44.728 427.596 44.728C426.588 44.728 425.724 44.32 425.004 43.504C424.332 42.688 423.996 41.296 423.996 39.328C423.996 37.36 424.116 35.944 424.356 35.08C424.596 34.168 424.932 33.52 425.364 33.136C426.132 32.512 427.092 32.2 428.244 32.2L430.62 32.488V28.672C430.62 24.976 431.94 21.64 434.58 18.664C437.22 15.64 441.036 14.128 446.028 14.128C447.132 14.128 447.948 14.176 448.476 14.272C449.052 14.32 449.7 14.512 450.42 14.848C451.716 15.52 452.364 17.392 452.364 20.464C452.364 22.768 451.956 24.4 451.14 25.36C450.468 26.176 449.412 26.608 447.972 26.656C447.54 26.704 446.868 26.728 445.956 26.728C444.18 26.728 443.292 27.328 443.292 28.528V32.488C445.932 32.296 448.236 32.2 450.204 32.2L456.9 32.488V25.072C456.9 23.968 456.924 23.152 456.972 22.624C457.068 22.096 457.284 21.52 457.62 20.896C458.292 19.696 460.164 19.096 463.236 19.096C466.5 19.096 468.42 19.984 468.996 21.76C469.284 22.528 469.428 23.752 469.428 25.432V32.488C471.54 32.296 473.124 32.2 474.18 32.2C475.284 32.2 476.1 32.248 476.628 32.344C477.204 32.392 477.828 32.608 478.5 32.992C479.796 33.616 480.444 35.464 480.444 38.536C480.444 41.56 479.796 43.408 478.5 44.08C477.78 44.416 477.132 44.632 476.556 44.728C476.028 44.776 475.212 44.8 474.108 44.8Z" fill="#0CBFB4"/>
<path d="M427.581 12.8767C424.704 4.726 415.354 8.36983 414.5 12.4452C413.331 8.13011 404.206 4.91778 401.419 12.8767C398.317 21.7466 413.421 29.7055 414.5 31C415.579 29.9452 430.683 21.6027 427.581 12.8767" fill="#F7A08E"/>
<path d="M56.0004 63.8601C56.0004 66.8768 53.3557 69.4508 50.0004 69.4508H11.5004C8.14504 69.4508 5.50037 66.8768 5.50037 63.8601V35.8495C5.50037 32.8328 8.14504 30.2588 11.5004 30.2588H50.0004C53.3557 30.2588 56.0004 32.8328 56.0004 35.8495V63.8601Z" fill="#FDD888" stroke="black" stroke-width="2"/>
<path d="M60.5 31.6352C60.5 35.0445 57.8332 37.7646 54.6667 37.7646H6.83333C3.66683 37.7646 1 35.0445 1 31.6352C1 28.226 3.66683 25.5058 6.83333 25.5058H54.6667C57.8332 25.5058 60.5 28.226 60.5 31.6352Z" fill="#FDD888" stroke="black" stroke-width="2"/>
<path d="M6.5 38.5H55V42.5H6.5V38.5Z" fill="#FCAB40"/>
<path d="M54.4324 21.2948L54.4317 21.2938L50.8962 15.8908C50.6007 15.4229 50.2018 15.0254 49.7336 14.7179C49.2628 14.4087 48.7294 14.1952 48.1701 14.0859C47.6108 13.9765 47.0324 13.9725 46.4715 14.074C45.9136 14.1749 45.3797 14.379 44.9059 14.6785L33.1066 21.8931C32.6627 22.1643 32.2716 22.4683 32.0018 22.8107C31.7434 23.1386 31.4575 23.6951 31.686 24.3284C31.9007 24.9237 32.4364 25.1942 32.815 25.3177C33.2281 25.4525 33.7249 25.5059 34.262 25.5059H51.823C52.9504 25.5059 54.0395 25.1575 54.6249 24.2774C55.247 23.3422 55.0384 22.2235 54.4324 21.2948ZM27.2376 25.5059C27.7747 25.5059 28.2715 25.4525 28.6846 25.3177C29.0632 25.1942 29.5989 24.9237 29.8136 24.3284C30.0421 23.6951 29.7562 23.1386 29.4978 22.8107C29.2281 22.4684 28.837 22.1645 28.3933 21.8933C28.3932 21.8932 28.3931 21.8932 28.393 21.8931L16.5957 14.6787C16.1221 14.3789 15.5882 14.1745 15.0302 14.0734C14.4691 13.9718 13.8905 13.9757 13.331 14.0851C12.7716 14.1945 12.238 14.4081 11.7672 14.7176C11.2991 15.0252 10.9003 15.4229 10.605 15.8911L7.06972 21.2952C7.06967 21.2953 7.06963 21.2954 7.06959 21.2954C6.46238 22.2233 6.25277 23.3419 6.87485 24.2774C7.46008 25.1575 8.54938 25.5059 9.67658 25.5059H27.2376Z" fill="#DA2F47" stroke="black" stroke-width="2"/>
<path d="M29.0623 19.1686H32.4373C33.5249 19.1686 34.5618 19.5872 35.3214 20.3227C36.0799 21.057 36.4998 22.046 36.4998 23.0701V69.4508H24.9998V23.0701C24.9998 22.046 25.4196 21.057 26.1781 20.3227C26.9377 19.5872 27.9746 19.1686 29.0623 19.1686Z" fill="#DA2F47" stroke="black" stroke-width="2"/>
</svg>
