<svg width="80" height="80" viewBox="0 0 100 100" fill="none" xmlns="http://www.w3.org/2000/svg">
<g clip-path="url(#clip0)">
<path d="M6.91229 93.095C13.6067 99.7895 21.0873 103.17 28.2678 95.9894C33.3651 90.8922 32.0679 81.3311 25.3706 74.6311C18.6734 67.9367 9.11507 66.6395 4.01507 71.7367C-3.16548 78.9172 0.215072 86.395 6.91229 93.095ZM25.1151 74.8894C30.1373 79.9117 31.1095 87.0839 27.2873 90.9089C21.904 96.2922 16.2929 93.7561 11.2679 88.7339C6.24285 83.7144 3.70952 78.1061 9.09563 72.7172C12.9178 68.895 20.0901 69.8672 25.1151 74.8894ZM93.0928 6.90888C86.3984 0.211657 78.9206 -3.16612 71.7373 4.01444C66.6401 9.11166 67.9373 18.6728 74.6345 25.37C81.3317 32.0672 90.8873 33.3644 95.9901 28.2644C103.171 21.0839 99.7901 13.6033 93.0928 6.90888ZM74.8901 25.1117C69.8678 20.0894 68.8956 12.92 72.7178 9.09499C78.1012 3.71166 83.7123 6.24499 88.7373 11.2672C93.7623 16.2894 96.2956 21.8978 90.9095 27.2839C87.0873 31.1061 79.9151 30.1339 74.8901 25.1117Z" fill="#292F33"/>
<path d="M50.0001 97.2223C76.0802 97.2223 97.2223 76.0802 97.2223 50.0001C97.2223 23.9199 76.0802 2.77783 50.0001 2.77783C23.9199 2.77783 2.77783 23.9199 2.77783 50.0001C2.77783 76.0802 23.9199 97.2223 50.0001 97.2223Z" fill="#292F33"/>
<path d="M87.7787 49.9998C87.7787 70.8637 70.8648 87.7776 50.0009 87.7776C29.137 87.7776 12.2231 70.8637 12.2231 49.9998C12.2231 29.1359 29.137 12.222 50.0009 12.222C70.8648 12.222 87.7787 29.1359 87.7787 49.9998Z" fill="#FFAC33"/>
<path d="M54.0138 29.6247L46.961 22.5719C47.4891 21.9579 47.7572 21.1623 47.7084 20.3539C47.6596 19.5455 47.2978 18.7879 46.6997 18.2419C46.1016 17.6958 45.3143 17.4043 44.5048 17.4291C43.6953 17.4539 42.9273 17.7931 42.3638 18.3747C41.6138 19.1247 41.3305 20.1608 41.4999 21.1275C40.8456 21.0111 40.1712 21.1066 39.5749 21.4C38.9786 21.6934 38.4914 22.1694 38.1844 22.7588C37.8773 23.3482 37.7663 24.0202 37.8675 24.677C37.9687 25.3338 38.2769 25.9412 38.7471 26.4108C39.8999 27.5636 41.7193 27.6136 42.9443 26.5886L49.9971 33.6386L54.0138 29.6247Z" fill="#FFE8B6"/>
<path d="M76.8586 56.4893C78.867 54.481 83.9448 45.8616 76.917 38.8338C72.0198 33.9366 68.0725 34.2171 60.7309 32.3977C57.7198 31.3921 53.792 27.7727 52.7892 26.7699C51.7836 27.7727 52.1364 31.4449 52.1364 31.4449C52.1364 31.4449 47.7614 31.8005 46.7559 32.8032C47.7586 33.806 52.4253 38.2199 53.242 40.2893C55.4364 47.256 55.1864 50.8004 60.0864 55.6949C68.117 63.7254 74.8531 58.4977 76.8586 56.4893Z" fill="#C1694F"/>
<path d="M25.9249 45.8333C25.9249 51.2028 34.5332 55.5555 29.1666 55.5555C27.8898 55.5555 26.6256 55.3041 25.446 54.8155C24.2665 54.3269 23.1947 53.6108 22.2919 52.708C21.3891 51.8052 20.673 50.7334 20.1844 49.5538C19.6958 48.3743 19.4443 47.11 19.4443 45.8333C19.4443 44.5566 19.6958 43.2923 20.1844 42.1128C20.673 40.9332 21.3891 39.8615 22.2919 38.9587C23.1947 38.0559 24.2665 37.3397 25.446 36.8511C26.6256 36.3626 27.8898 36.1111 29.1666 36.1111C34.536 36.1111 25.9249 40.4639 25.9249 45.8333ZM50.0499 72.1944C54.4916 74.3361 61.5388 68.9528 59.3943 73.3972C58.3637 75.5315 56.5274 77.1689 54.2895 77.9492C52.0515 78.7296 49.5953 78.589 47.461 77.5583C45.3267 76.5277 43.6893 74.6914 42.909 72.4534C42.1286 70.2155 42.2692 67.7592 43.2999 65.625C45.4443 61.1805 45.6082 70.05 50.0499 72.1944Z" fill="#77B255"/>
<path d="M41.6669 52.7777C44.7351 52.7777 47.2224 50.2904 47.2224 47.2222C47.2224 44.1539 44.7351 41.6666 41.6669 41.6666C38.5986 41.6666 36.1113 44.1539 36.1113 47.2222C36.1113 50.2904 38.5986 52.7777 41.6669 52.7777Z" fill="#F4900C"/>
<path d="M66.6664 69.4445C68.2006 69.4445 69.4442 68.2008 69.4442 66.6667C69.4442 65.1326 68.2006 63.8889 66.6664 63.8889C65.1323 63.8889 63.8887 65.1326 63.8887 66.6667C63.8887 68.2008 65.1323 69.4445 66.6664 69.4445Z" fill="#F4900C"/>
<path d="M30.5556 66.6666C32.0897 66.6666 33.3334 65.423 33.3334 63.8889C33.3334 62.3547 32.0897 61.1111 30.5556 61.1111C29.0215 61.1111 27.7778 62.3547 27.7778 63.8889C27.7778 65.423 29.0215 66.6666 30.5556 66.6666Z" fill="#F4900C"/>
</g>
<defs>
<clipPath id="clip0">
<rect width="100" height="100" fill="white"/>
</clipPath>
</defs>
</svg>
