<svg width="80" height="80" viewBox="0 0 100 100" fill="none" xmlns="http://www.w3.org/2000/svg">
<path d="M61.1109 91.6664C61.1109 97.8026 56.1359 99.9998 49.9998 99.9998C43.8637 99.9998 38.8887 97.8026 38.8887 91.6664L41.6664 66.6664C41.6664 60.5303 43.8637 61.1109 49.9998 61.1109C56.1359 61.1109 58.3331 60.5303 58.3331 66.6664L61.1109 91.6664Z" fill="#662113"/>
<path d="M87.2395 75.8251C67.8979 59.2556 60.0645 35.5306 50.0006 35.5306C39.9367 35.5306 32.1034 59.2556 12.7645 75.8251C4.63674 82.789 8.50896 86.8167 19.6506 86.0112C29.584 85.2945 38.8701 83.0417 50.0006 83.0417C61.1312 83.0417 70.4229 85.2973 80.3506 86.0112C91.4951 86.8167 95.3645 82.789 87.2395 75.8251Z" fill="#5C913B"/>
<path d="M80.9574 69.2611C66.0935 55.6305 57.7407 36.1111 49.9991 36.1111C42.2629 36.1111 33.9074 55.6305 19.0435 69.2611C7.23238 80.0889 34.5213 82.5194 49.9991 69.2611C65.4685 82.5194 92.7657 80.0889 80.9574 69.2611Z" fill="#3E721D"/>
<path d="M80.9574 58.2195C66.0935 45.4861 57.7407 27.2528 49.9991 27.2528C42.2629 27.2528 33.9074 45.4861 19.0435 58.2195C7.23238 68.3361 34.5213 70.6056 49.9991 58.2195C65.4685 70.6056 92.7657 68.3361 80.9574 58.2195Z" fill="#5C913B"/>
<path d="M74.1658 49.175C62.563 39.2361 56.0436 25 49.9991 25C43.9602 25 37.4352 39.2361 25.8324 49.175C16.613 57.075 37.9158 58.8472 49.9991 49.175C62.0797 58.8472 83.388 57.075 74.1658 49.175Z" fill="#3E721D"/>
<path d="M74.1658 40.9055C62.563 30.9638 56.0436 16.7305 49.9991 16.7305C43.9602 16.7305 37.4352 30.9666 25.8324 40.9055C16.613 48.8055 37.9158 50.5749 49.9991 40.9055C62.0797 50.5749 83.388 48.8027 74.1658 40.9055Z" fill="#5C913B"/>
<path d="M69.5036 33.5586C60.1397 25.5364 54.8786 14.0475 50.0008 14.0475C45.1258 14.0475 39.862 25.5364 30.4981 33.5586C23.0564 39.9336 40.2508 41.3614 50.0008 33.5586C59.7508 41.3642 76.9481 39.9336 69.5036 33.5586Z" fill="#3E721D"/>
<path d="M69.5036 27.3304C60.1397 19.3082 54.8786 7.81934 50.0008 7.81934C45.1258 7.81934 39.862 19.3082 30.4981 27.3304C23.0564 33.7054 40.2508 35.1332 50.0008 27.3304C59.7508 35.136 76.9481 33.7054 69.5036 27.3304Z" fill="#5C913B"/>
<path d="M64.8409 18.1663C57.7159 12.0608 53.7103 3.31909 49.9992 3.31909C46.2909 3.31909 42.2825 12.0635 35.1575 18.1663C29.4964 23.0191 42.577 24.1052 49.9992 18.1663C57.4186 24.1052 70.5047 23.0163 64.8409 18.1663Z" fill="#3E721D"/>
<path d="M64.8409 14.8472C57.7159 8.74444 53.7103 0 49.9992 0C46.2909 0 42.2825 8.74444 35.1575 14.8472C29.4964 19.7 42.577 20.7861 49.9992 14.8472C57.4186 20.7861 70.5047 19.6972 64.8409 14.8472Z" fill="#5C913B"/>
</svg>
