<svg width="70" height="70" viewBox="0 0 100 100" fill="none" xmlns="http://www.w3.org/2000/svg">
<g clip-path="url(#clip0)">
<path d="M44.1612 96.8755H40.3695C40.3695 96.8755 36.8418 87.5755 37.3862 80.9421L45.1668 82.4671C46.6279 86.831 44.1612 96.8755 44.1612 96.8755ZM55.6723 96.8755H59.464C59.464 96.8755 62.9918 87.5755 62.4473 80.9421L54.6668 82.4671C53.2057 86.831 55.6723 96.8755 55.6723 96.8755Z" fill="#D4AB88"/>
<path d="M38.3104 97.6364C38.5937 96.9614 39.1937 95.7086 39.2576 94.9836C39.3215 94.2586 39.3521 94.0003 39.9243 93.8003C40.8882 93.4642 43.9132 93.5586 44.4326 93.7558C44.9493 93.9531 44.9576 94.4864 45.0326 94.9336C45.1076 95.3808 45.3493 96.1114 45.6632 96.7114C45.9799 97.3114 46.7993 98.6475 46.3882 99.5836C46.216 99.9725 45.2632 99.967 42.2021 99.967C39.141 99.967 38.266 99.8947 38.0576 99.6392C37.8493 99.3836 38.0271 98.3142 38.3104 97.6364ZM61.5215 97.6364C61.2382 96.9614 60.6382 95.7086 60.5743 94.9836C60.5104 94.2586 60.4799 94.0003 59.9076 93.8003C58.9437 93.4642 55.9187 93.5586 55.3993 93.7558C54.8799 93.9531 54.8743 94.4864 54.7993 94.9336C54.7243 95.3808 54.4826 96.1114 54.1687 96.7114C53.8549 97.3114 53.0326 98.6475 53.4437 99.5836C53.616 99.9725 54.5687 99.967 57.6299 99.967C60.691 99.967 61.566 99.8947 61.7743 99.6392C61.9826 99.3836 61.8049 98.3142 61.5215 97.6364Z" fill="#FA743E"/>
<path d="M24.0165 11.5171C24.0471 11.8699 26.436 15.781 27.6915 18.8365C28.9471 21.8921 29.6638 24.9421 30.3249 25.6365C31.6471 27.0226 36.136 30.856 38.9832 34.9226C41.8304 38.9893 40.9943 41.8754 39.1499 43.0393C36.7054 44.581 34.1415 43.606 32.3804 40.8504C29.7705 36.6346 27.234 32.3738 24.7721 28.0699C23.4945 25.7604 22.3644 23.3723 21.3888 20.9199C20.286 18.1421 20.1554 14.8976 19.9888 14.4976C19.5054 13.3171 16.8776 11.7838 16.7832 10.5893C16.7832 10.5893 23.9138 10.3254 24.0165 11.5171ZM75.9832 11.5171C75.9526 11.8699 73.5638 15.781 72.3082 18.8365C71.0526 21.8921 70.336 24.9421 69.6749 25.6365C68.3526 27.0226 63.8638 30.856 61.0165 34.9226C58.1693 38.9893 59.0054 41.8754 60.8499 43.0393C63.2943 44.581 65.8582 43.606 67.6193 40.8504C68.8721 38.8893 73.0388 31.9365 75.2276 28.0699C76.5025 25.7603 77.6316 23.3733 78.6082 20.9226C79.711 18.1449 79.8415 14.9004 80.0082 14.5004C80.4943 13.3199 83.1221 11.7865 83.2165 10.5949C83.2165 10.5893 76.086 10.3254 75.9832 11.5171Z" fill="#D4AB88"/>
<path d="M100 9.72214C100 10.0905 99.8537 10.4438 99.5932 10.7042C99.3327 10.9647 98.9795 11.111 98.6111 11.111H1.38889C1.02053 11.111 0.667263 10.9647 0.406796 10.7042C0.146329 10.4438 0 10.0905 0 9.72214C0 9.35378 0.146329 9.00052 0.406796 8.74005C0.667263 8.47958 1.02053 8.33325 1.38889 8.33325H98.6111C98.9795 8.33325 99.3327 8.47958 99.5932 8.74005C99.8537 9.00052 100 9.35378 100 9.72214Z" fill="#99AAB5"/>
<path d="M94.4445 0C93.7078 0 93.0012 0.292658 92.4803 0.813592C91.9594 1.33453 91.6667 2.04107 91.6667 2.77778C91.6667 2.04107 91.3741 1.33453 90.8531 0.813592C90.3322 0.292658 89.6257 0 88.8889 0C88.1522 0 87.4457 0.292658 86.9248 0.813592C86.4038 1.33453 86.1112 2.04107 86.1112 2.77778V16.6667C86.1112 17.4034 86.4038 18.1099 86.9248 18.6309C87.4457 19.1518 88.1522 19.4444 88.8889 19.4444C89.6257 19.4444 90.3322 19.1518 90.8531 18.6309C91.3741 18.1099 91.6667 17.4034 91.6667 16.6667C91.6667 17.4034 91.9594 18.1099 92.4803 18.6309C93.0012 19.1518 93.7078 19.4444 94.4445 19.4444C95.1812 19.4444 95.8877 19.1518 96.4087 18.6309C96.9296 18.1099 97.2223 17.4034 97.2223 16.6667V2.77778C97.2223 2.04107 96.9296 1.33453 96.4087 0.813592C95.8877 0.292658 95.1812 0 94.4445 0V0ZM11.1112 0C10.3745 0 9.66791 0.292658 9.14698 0.813592C8.62605 1.33453 8.33339 2.04107 8.33339 2.77778C8.33339 2.04107 8.04073 1.33453 7.5198 0.813592C6.99886 0.292658 6.29232 0 5.55561 0C4.8189 0 4.11236 0.292658 3.59142 0.813592C3.07049 1.33453 2.77783 2.04107 2.77783 2.77778V16.6667C2.77783 17.4034 3.07049 18.1099 3.59142 18.6309C4.11236 19.1518 4.8189 19.4444 5.55561 19.4444C6.29232 19.4444 6.99886 19.1518 7.5198 18.6309C8.04073 18.1099 8.33339 17.4034 8.33339 16.6667C8.33339 17.4034 8.62605 18.1099 9.14698 18.6309C9.66791 19.1518 10.3745 19.4444 11.1112 19.4444C11.8479 19.4444 12.5544 19.1518 13.0753 18.6309C13.5963 18.1099 13.8889 17.4034 13.8889 16.6667V2.77778C13.8889 2.04107 13.5963 1.33453 13.0753 0.813592C12.5544 0.292658 11.8479 0 11.1112 0V0Z" fill="#292F33"/>
<path d="M61.5891 34.1282C59.528 35.2921 58.0252 37.6198 57.4446 38.6198C55.5974 38.9448 54.2474 39.4532 54.2474 39.4532H45.7502C45.7502 39.4532 44.4002 38.9448 42.553 38.6198C41.9724 37.6198 40.4696 35.2948 38.4085 34.1282C38.4085 34.1282 32.5169 36.731 30.7808 38.3532C31.3641 39.8448 32.1474 41.2615 32.7696 42.2893C33.8808 45.3226 36.9419 49.3087 37.2863 50.0032C38.3669 52.1698 39.3446 62.5032 39.3446 62.5032L50.0002 66.6671L60.653 62.5004C60.653 62.5004 61.6308 52.1671 62.7113 50.0004C63.0585 49.3059 66.1196 45.3198 67.228 42.2865C67.8502 41.2587 68.6335 39.8448 69.2169 38.3504C67.4808 36.7309 61.5891 34.1282 61.5891 34.1282Z" fill="#FA743E"/>
<path d="M75.2668 12.1194C74.3501 11.6832 73.9446 10.9305 74.2196 10.1221L74.2279 10.0944C74.5029 9.28602 75.0362 9.13325 76.2779 9.15269C76.2779 9.15269 80.5029 9.3638 83.0473 11.1305C83.0473 11.1305 81.7807 11.9749 81.1057 12.686V12.7138C80.5918 14.2166 75.8446 12.3944 75.2668 12.1194Z" fill="#D4AB88"/>
<path d="M77.3426 9.6397C77.1595 9.59434 77.0017 9.47829 76.9038 9.31693C76.806 9.15556 76.776 8.96201 76.8204 8.77859L77.0621 7.78693C77.1538 7.40637 77.5426 7.17304 77.9232 7.2647C78.3038 7.35637 78.5371 7.74526 78.4454 8.12581L78.2038 9.11748C78.1577 9.30028 78.0416 9.45759 77.8804 9.55534C77.7192 9.65309 77.526 9.6834 77.3426 9.6397ZM76.1065 7.22304C75.8877 7.1506 75.6491 7.16744 75.4426 7.26991C75.2361 7.37237 75.0784 7.55218 75.0037 7.77026L74.2287 10.0953C74.076 10.5508 74.6954 9.90637 75.151 10.0591C75.3694 10.1325 75.608 10.1164 75.8146 10.0144C76.0213 9.91235 76.1791 9.73272 76.2538 9.5147L76.6537 8.32859C76.7263 8.10938 76.7095 7.87042 76.6071 7.66348C76.5047 7.45655 76.3248 7.2983 76.1065 7.22304Z" fill="#D4AB88"/>
<path d="M78.8441 9.44212C78.6609 9.39676 78.5031 9.28071 78.4052 9.11934C78.3074 8.95797 78.2774 8.76442 78.3218 8.58101L78.5496 7.65323C78.6413 7.27267 79.0302 7.03934 79.4107 7.131C79.7913 7.22267 80.0246 7.61156 79.933 7.99212L79.7052 8.91989C79.6592 9.10269 79.543 9.26001 79.3818 9.35775C79.2206 9.4555 79.0274 9.48581 78.8441 9.44212Z" fill="#D4AB88"/>
<path d="M80.2786 9.51157C80.0954 9.46621 79.9377 9.35015 79.8398 9.18879C79.7419 9.02742 79.712 8.83387 79.7564 8.65045L79.9453 7.88101C80.037 7.50045 80.4259 7.26712 80.8064 7.35879C81.187 7.45045 81.4203 7.83934 81.3286 8.2199L81.1397 8.98934C81.0937 9.17214 80.9776 9.32946 80.8164 9.4272C80.6552 9.52495 80.462 9.55526 80.2786 9.51157Z" fill="#D4AB88"/>
<path d="M81.7191 9.57591C81.5359 9.53055 81.3781 9.4145 81.2802 9.25313C81.1824 9.09177 81.1524 8.89821 81.1968 8.7148L81.308 8.2648C81.3996 7.88424 81.7885 7.65091 82.1691 7.74258C82.5496 7.83424 82.783 8.22313 82.6913 8.60369L82.5802 9.05369C82.5348 9.23688 82.4188 9.39466 82.2574 9.49252C82.096 9.59038 81.9025 9.62036 81.7191 9.57591Z" fill="#D4AB88"/>
<path d="M24.7322 12.1196C25.6489 11.6835 26.0544 10.9307 25.7794 10.1224L25.7711 10.0946C25.4961 9.28903 24.9628 9.13347 23.7211 9.15291C23.7211 9.15291 19.4961 9.36402 16.9517 11.1307C16.9517 11.1307 18.2128 12.0029 18.9017 12.714C19.1739 13.5196 22.685 13.0946 24.7322 12.1196Z" fill="#D4AB88"/>
<path d="M22.6579 9.63873C22.8411 9.59337 22.9989 9.47732 23.0968 9.31595C23.1946 9.15458 23.2246 8.96103 23.1802 8.77762L22.9385 7.78595C22.8931 7.60276 22.7771 7.44498 22.6157 7.34712C22.4544 7.24926 22.2608 7.21928 22.0774 7.26373C21.8946 7.30974 21.7373 7.42591 21.6395 7.58709C21.5418 7.74827 21.5115 7.94147 21.5552 8.12484L21.7968 9.11651C21.8428 9.29931 21.959 9.45662 22.1202 9.55436C22.2814 9.65211 22.4746 9.68242 22.6579 9.63873ZM23.8941 7.22206C24.1129 7.14962 24.3515 7.16647 24.558 7.26893C24.7644 7.37139 24.9222 7.5512 24.9968 7.76928L25.7718 10.0943C25.9246 10.5498 25.3052 9.90539 24.8496 10.0582C24.6312 10.1315 24.3926 10.1154 24.1859 10.0134C23.9793 9.91138 23.8214 9.73174 23.7468 9.51373L23.3468 8.32762C23.2743 8.1084 23.2911 7.86944 23.3935 7.66251C23.4959 7.45557 23.6758 7.29733 23.8941 7.22206Z" fill="#D4AB88"/>
<path d="M21.1532 9.44131C21.3364 9.39595 21.4942 9.2799 21.5921 9.11853C21.6899 8.95716 21.7199 8.76361 21.6755 8.5802L21.4477 7.65242C21.4023 7.46923 21.2863 7.31145 21.1249 7.21359C20.9635 7.11573 20.77 7.08574 20.5866 7.13019C20.4039 7.17616 20.2468 7.29246 20.1495 7.45376C20.0522 7.61506 20.0226 7.80828 20.0671 7.99131L20.2949 8.91908C20.3396 9.10206 20.4551 9.25982 20.6161 9.35773C20.777 9.45563 20.9702 9.48569 21.1532 9.44131Z" fill="#D4AB88"/>
<path d="M19.7203 9.51122C19.9035 9.46586 20.0612 9.34981 20.1591 9.18844C20.257 9.02707 20.287 8.83352 20.2425 8.65011L20.0536 7.88066C20.0338 7.78751 19.9954 7.6993 19.9409 7.62125C19.8863 7.5432 19.8166 7.47691 19.7359 7.42631C19.6552 7.3757 19.5652 7.34183 19.4712 7.32668C19.3772 7.31153 19.281 7.31543 19.1886 7.33813C19.0961 7.36083 19.0091 7.40189 18.9328 7.45885C18.8564 7.51581 18.7923 7.58752 18.7442 7.66973C18.6962 7.75194 18.6651 7.84297 18.6529 7.93742C18.6406 8.03187 18.6475 8.12781 18.6731 8.21955L18.8619 8.989C18.9067 9.17198 19.0222 9.32973 19.1831 9.42764C19.344 9.52555 19.5372 9.55561 19.7203 9.51122Z" fill="#D4AB88"/>
<path d="M18.2795 9.57478C18.4627 9.52942 18.6205 9.41337 18.7183 9.252C18.8162 9.09063 18.8462 8.89708 18.8017 8.71367L18.6934 8.26367C18.6474 8.08087 18.5312 7.92355 18.37 7.82581C18.2088 7.72806 18.0156 7.69775 17.8323 7.74144C17.6495 7.78745 17.4922 7.90363 17.3944 8.06481C17.2967 8.22599 17.2664 8.41919 17.31 8.60256L17.4212 9.05256C17.4659 9.23553 17.5814 9.39329 17.7423 9.4912C17.9032 9.5891 18.0964 9.61916 18.2795 9.57478Z" fill="#D4AB88"/>
<path d="M60.667 68.0556L50.0003 63.8889L39.3337 68.0556C39.3337 68.0556 37.0559 73.3806 36.667 82.4667H45.167C47.6114 79.7472 48.5003 72.4556 48.5003 72.4556H51.5003C51.5003 72.4556 52.3892 79.7472 54.8337 82.4667H63.3337C62.9448 73.3806 60.667 68.0556 60.667 68.0556Z" fill="#DD551F"/>
<path d="M39.2661 62.5H60.7356V68.0556H39.2661V62.5Z" fill="#C1694F"/>
<path d="M52.7778 62.2192H54.5834V68.3553H52.7778V62.2192Z" fill="#14171A"/>
<path d="M51.3887 65.625C51.6449 65.625 51.8526 65.4173 51.8526 65.1612C51.8526 64.905 51.6449 64.6973 51.3887 64.6973C51.1325 64.6973 50.9248 64.905 50.9248 65.1612C50.9248 65.4173 51.1325 65.625 51.3887 65.625Z" fill="#14171A"/>
<path d="M50.0572 65.1612C50.0572 65.2842 50.0083 65.4022 49.9213 65.4892C49.8343 65.5762 49.7163 65.625 49.5933 65.625C49.4703 65.625 49.3523 65.5762 49.2653 65.4892C49.1783 65.4022 49.1294 65.2842 49.1294 65.1612C49.1294 65.0381 49.1783 64.9201 49.2653 64.8331C49.3523 64.7461 49.4703 64.6973 49.5933 64.6973C49.7163 64.6973 49.8343 64.7461 49.9213 64.8331C50.0083 64.9201 50.0572 65.0381 50.0572 65.1612Z" fill="#14171A"/>
<path d="M47.7998 65.625C48.056 65.625 48.2637 65.4173 48.2637 65.1612C48.2637 64.905 48.056 64.6973 47.7998 64.6973C47.5436 64.6973 47.3359 64.905 47.3359 65.1612C47.3359 65.4173 47.5436 65.625 47.7998 65.625Z" fill="#14171A"/>
<path d="M46.0044 65.625C46.2606 65.625 46.4683 65.4173 46.4683 65.1612C46.4683 64.905 46.2606 64.6973 46.0044 64.6973C45.7482 64.6973 45.5405 64.905 45.5405 65.1612C45.5405 65.4173 45.7482 65.625 46.0044 65.625Z" fill="#14171A"/>
<path d="M44.2139 65.625C44.4701 65.625 44.6778 65.4173 44.6778 65.1612C44.6778 64.905 44.4701 64.6973 44.2139 64.6973C43.9577 64.6973 43.75 64.905 43.75 65.1612C43.75 65.4173 43.9577 65.625 44.2139 65.625Z" fill="#14171A"/>
<path d="M42.4185 65.625C42.6747 65.625 42.8824 65.4173 42.8824 65.1612C42.8824 64.905 42.6747 64.6973 42.4185 64.6973C42.1623 64.6973 41.9546 64.905 41.9546 65.1612C41.9546 65.4173 42.1623 65.625 42.4185 65.625Z" fill="#14171A"/>
<path d="M40.625 65.625C40.8812 65.625 41.0889 65.4173 41.0889 65.1612C41.0889 64.905 40.8812 64.6973 40.625 64.6973C40.3688 64.6973 40.1611 64.905 40.1611 65.1612C40.1611 65.4173 40.3688 65.625 40.625 65.625Z" fill="#14171A"/>
<path d="M47.7998 65.625C48.056 65.625 48.2637 65.4173 48.2637 65.1612C48.2637 64.905 48.056 64.6973 47.7998 64.6973C47.5436 64.6973 47.3359 64.905 47.3359 65.1612C47.3359 65.4173 47.5436 65.625 47.7998 65.625Z" fill="#14171A"/>
<path d="M45.9809 65.5725C46.208 65.5725 46.392 65.3884 46.392 65.1614C46.392 64.9343 46.208 64.7502 45.9809 64.7502C45.7539 64.7502 45.5698 64.9343 45.5698 65.1614C45.5698 65.3884 45.7539 65.5725 45.9809 65.5725Z" fill="#657786"/>
<path d="M45.3286 64.7502H45.9814V65.5752H45.3286V64.7502Z" fill="#657786"/>
<path d="M46.4688 69.0166H44.3633V61.5249H46.4688V62.4971H45.3327V68.0443H46.4688V69.0166Z" fill="#657786"/>
<path d="M54.4188 10.6666C52.1327 9.92769 46.7577 10.1277 45.4132 11.8777C41.9188 11.9444 37.8188 15.1027 37.2799 19.2694C36.7466 23.3944 37.9327 25.3083 38.3549 28.411C38.8327 31.9249 40.8077 33.0471 42.3882 33.5194C44.6605 36.5221 47.0771 36.3916 51.1299 36.3916C59.0493 36.3916 62.8216 31.0916 63.1549 22.0916C63.3577 16.6471 60.1632 12.5249 54.4188 10.6666Z" fill="#963B22"/>
<path d="M46.6064 34.1282V40.9171C46.6064 41.3628 46.6942 41.8042 46.8648 42.2161C47.0354 42.6279 47.2855 43.0021 47.6007 43.3173C47.9159 43.6325 48.2901 43.8825 48.7019 44.0531C49.1137 44.2237 49.5551 44.3115 50.0009 44.3115C50.4467 44.3115 50.8881 44.2237 51.2999 44.0531C51.7117 43.8825 52.0859 43.6325 52.4011 43.3173C52.7163 43.0021 52.9664 42.6279 53.1369 42.2161C53.3075 41.8042 53.3953 41.3628 53.3953 40.9171V34.1282H46.6064Z" fill="#D4AB88"/>
<path d="M58.9466 22.4747C58.1799 21.4136 57.1993 20.558 55.0493 20.258C55.8549 20.6275 56.6299 21.9053 56.7299 22.6108C56.8299 23.3164 56.9327 23.8886 56.2938 23.183C53.7354 20.3553 50.9493 21.4692 48.191 19.7414C46.2632 18.5358 45.6771 17.1997 45.6771 17.1997C45.6771 17.1997 45.441 18.9803 42.5188 20.7942C41.6716 21.3192 40.6604 22.4914 40.0993 24.2219C39.6966 25.4664 39.8216 26.5747 39.8216 28.4692C39.8216 33.9997 44.3799 38.6525 50.0049 38.6525C55.6299 38.6525 60.1882 33.9608 60.1882 28.4692C60.1827 25.0303 59.8216 23.6858 58.9466 22.4747Z" fill="#D4AB88"/>
<path d="M54.5251 34.1275H45.4751C45.4751 34.1275 46.6057 36.3886 50.0001 36.3886C53.3945 36.3886 54.5251 34.1275 54.5251 34.1275ZM51.1307 31.2969H48.8668C48.7165 31.2969 48.5723 31.2372 48.4661 31.1309C48.3598 31.0247 48.3001 30.8805 48.3001 30.7302C48.3001 30.58 48.3598 30.4358 48.4661 30.3295C48.5723 30.2233 48.7165 30.1636 48.8668 30.1636H51.1307C51.2809 30.1636 51.4251 30.2233 51.5313 30.3295C51.6376 30.4358 51.6973 30.58 51.6973 30.7302C51.6973 30.8805 51.6376 31.0247 51.5313 31.1309C51.4251 31.2372 51.2809 31.2969 51.1307 31.2969Z" fill="#C1694F"/>
<path d="M45.4748 27.3393C45.175 27.3393 44.8874 27.2202 44.6754 27.0081C44.4634 26.7961 44.3442 26.5086 44.3442 26.2087V25.0754C44.3442 24.7755 44.4634 24.488 44.6754 24.276C44.8874 24.0639 45.175 23.9448 45.4748 23.9448C45.7746 23.9448 46.0622 24.0639 46.2742 24.276C46.4862 24.488 46.6053 24.7755 46.6053 25.0754V26.2059C46.6057 26.3546 46.5767 26.5019 46.5201 26.6394C46.4634 26.7769 46.3802 26.9019 46.2752 27.0072C46.1702 27.1124 46.0454 27.196 45.9081 27.2529C45.7707 27.3099 45.6235 27.3393 45.4748 27.3393ZM54.5248 27.3393C54.2249 27.3393 53.9374 27.2202 53.7254 27.0081C53.5133 26.7961 53.3942 26.5086 53.3942 26.2087V25.0754C53.3942 24.9269 53.4235 24.7799 53.4803 24.6427C53.5371 24.5056 53.6204 24.3809 53.7254 24.276C53.8303 24.171 53.955 24.0877 54.0921 24.0309C54.2293 23.9741 54.3763 23.9448 54.5248 23.9448C54.6733 23.9448 54.8203 23.9741 54.9574 24.0309C55.0946 24.0877 55.2192 24.171 55.3242 24.276C55.4292 24.3809 55.5125 24.5056 55.5693 24.6427C55.6261 24.7799 55.6553 24.9269 55.6553 25.0754V26.2059C55.6557 26.3546 55.6267 26.5019 55.5701 26.6394C55.5134 26.7769 55.4302 26.9019 55.3252 27.0072C55.2202 27.1124 55.0954 27.196 54.9581 27.2529C54.8207 27.3099 54.6735 27.3393 54.5248 27.3393Z" fill="#662113"/>
</g>
<defs>
<clipPath id="clip0">
<rect width="100" height="100" fill="white"/>
</clipPath>
</defs>
</svg>
