<svg width="80" height="80" viewBox="0 0 100 100" fill="none" xmlns="http://www.w3.org/2000/svg">
<g clip-path="url(#clip0)">
<path d="M90.625 96.875H9.375C5.92188 96.875 3.125 94.0781 3.125 90.625V9.375C3.125 5.92188 5.92188 3.125 9.375 3.125H90.625C94.0781 3.125 96.875 5.92188 96.875 9.375V90.625C96.875 94.0781 94.0781 96.875 90.625 96.875Z" fill="url(#paint0_linear)"/>
<path d="M81.25 37.5V103.125H96.875V37.5H81.25ZM84.375 98.4375V92.5078C84.375 91.8125 85.2187 91.4609 85.7109 91.9531L92.4219 98.6641C92.9141 99.1562 92.5625 100 91.8672 100H85.9375C85.0781 100 84.375 99.2969 84.375 98.4375ZM92.4141 94.25L87 88.8359C86.5078 88.3438 86.8594 87.5 87.5547 87.5H92.1875C93.0469 87.5 93.75 88.2031 93.75 89.0625V93.6953C93.75 94.3906 92.9063 94.7422 92.4141 94.25ZM84.375 82.8125V76.8828C84.375 76.1875 85.2187 75.8359 85.7109 76.3281L92.4219 83.0391C92.9141 83.5312 92.5625 84.375 91.8672 84.375H85.9375C85.0781 84.375 84.375 83.6719 84.375 82.8125ZM92.4141 78.625L87 73.2109C86.5078 72.7188 86.8594 71.875 87.5547 71.875H92.1875C93.0469 71.875 93.75 72.5781 93.75 73.4375V78.0703C93.75 78.7656 92.9063 79.1172 92.4141 78.625ZM84.375 67.1875V61.2578C84.375 60.5625 85.2187 60.2109 85.7109 60.7031L92.4219 67.4141C92.9141 67.9062 92.5625 68.75 91.8672 68.75H85.9375C85.0781 68.75 84.375 68.0469 84.375 67.1875ZM92.4141 63L87 57.5859C86.5078 57.0938 86.8594 56.25 87.5547 56.25H92.1875C93.0469 56.25 93.75 56.9531 93.75 57.8125V62.4453C93.75 63.1406 92.9063 63.4922 92.4141 63ZM84.375 51.5625V45.6328C84.375 44.9375 85.2187 44.5859 85.7109 45.0781L92.4219 51.7891C92.9141 52.2813 92.5625 53.125 91.8672 53.125H85.9375C85.0781 53.125 84.375 52.4219 84.375 51.5625ZM92.4141 47.375L87 41.9609C86.5078 41.4687 86.8594 40.625 87.5547 40.625H92.1875C93.0469 40.625 93.75 41.3281 93.75 42.1875V46.8203C93.75 47.5156 92.9063 47.8672 92.4141 47.375ZM91.8672 37.5H85.9375H91.8672Z" fill="url(#paint1_linear)"/>
<path opacity="0.2" d="M96.0938 38.2812V102.344H82.0312V38.2812H96.0938ZM92.9609 48.3828C93.8281 48.3828 94.5312 47.6797 94.5312 46.8203V42.1875C94.5312 40.8984 93.4766 39.8438 92.1875 39.8438H87.5547C86.9219 39.8438 86.3516 40.2187 86.1094 40.8047C85.8672 41.3906 86 42.0625 86.4453 42.5078L91.8594 47.9219C92.1563 48.2188 92.5469 48.3828 92.9609 48.3828ZM85.9375 53.9062H91.8672C92.5 53.9062 93.0703 53.5312 93.3125 52.9453C93.5547 52.3594 93.4219 51.6875 92.9766 51.2422L86.2578 44.5312C85.9609 44.2344 85.5703 44.0703 85.1562 44.0703C84.2891 44.0703 83.5859 44.7734 83.5859 45.6328V51.5625C83.5937 52.8516 84.6484 53.9062 85.9375 53.9062ZM92.9609 64.0078C93.8281 64.0078 94.5312 63.3047 94.5312 62.4453V57.8125C94.5312 56.5234 93.4766 55.4688 92.1875 55.4688H87.5547C86.9219 55.4688 86.3516 55.8438 86.1094 56.4297C85.8672 57.0156 86 57.6875 86.4453 58.1328L91.8594 63.5469C92.1563 63.8437 92.5469 64.0078 92.9609 64.0078ZM85.9375 69.5312H91.8672C92.5 69.5312 93.0703 69.1562 93.3125 68.5703C93.5547 67.9844 93.4219 67.3125 92.9766 66.8672L86.2578 60.1562C85.9609 59.8594 85.5703 59.6953 85.1562 59.6953C84.2891 59.6953 83.5859 60.3984 83.5859 61.2578V67.1875C83.5937 68.4766 84.6484 69.5312 85.9375 69.5312ZM92.9609 79.6328C93.8281 79.6328 94.5312 78.9297 94.5312 78.0703V73.4375C94.5312 72.1484 93.4766 71.0938 92.1875 71.0938H87.5547C86.9219 71.0938 86.3516 71.4688 86.1094 72.0547C85.8672 72.6406 86 73.3125 86.4453 73.7578L91.8594 79.1719C92.1563 79.4687 92.5469 79.6328 92.9609 79.6328ZM85.9375 85.1562H91.8672C92.5 85.1562 93.0703 84.7812 93.3125 84.1953C93.5547 83.6094 93.4219 82.9375 92.9766 82.4922L86.2578 75.7812C85.9609 75.4844 85.5703 75.3203 85.1562 75.3203C84.2891 75.3203 83.5859 76.0234 83.5859 76.8828V82.8125C83.5937 84.1016 84.6484 85.1562 85.9375 85.1562ZM92.9609 95.2578C93.8281 95.2578 94.5312 94.5547 94.5312 93.6953V89.0625C94.5312 87.7734 93.4766 86.7188 92.1875 86.7188H87.5547C86.9219 86.7188 86.3516 87.0938 86.1094 87.6797C85.8672 88.2656 86 88.9375 86.4453 89.3828L91.8594 94.7969C92.1563 95.0937 92.5469 95.2578 92.9609 95.2578ZM85.9375 100.781H91.8672C92.5 100.781 93.0703 100.406 93.3125 99.8203C93.5547 99.2344 93.4219 98.5625 92.9766 98.1172L86.2656 91.4062C85.9687 91.1094 85.5781 90.9453 85.1641 90.9453C84.2969 90.9453 83.5938 91.6484 83.5938 92.5078V98.4375C83.5938 99.7266 84.6484 100.781 85.9375 100.781ZM96.875 37.5H81.25V103.125H96.875V37.5ZM92.9609 47.6016C92.7656 47.6016 92.5703 47.5312 92.4141 47.375L87 41.9609C86.5078 41.4687 86.8594 40.625 87.5547 40.625H92.1875C93.0469 40.625 93.75 41.3281 93.75 42.1875V46.8203C93.75 47.2891 93.3672 47.6016 92.9609 47.6016ZM85.9375 53.125C85.0781 53.125 84.375 52.4219 84.375 51.5625V45.6328C84.375 45.1641 84.7578 44.8516 85.1641 44.8516C85.3594 44.8516 85.5547 44.9219 85.7109 45.0781L92.4219 51.7891C92.9141 52.2813 92.5625 53.125 91.8672 53.125H85.9375ZM92.9609 63.2266C92.7656 63.2266 92.5703 63.1562 92.4141 63L87 57.5859C86.5078 57.0938 86.8594 56.25 87.5547 56.25H92.1875C93.0469 56.25 93.75 56.9531 93.75 57.8125V62.4453C93.75 62.9141 93.3672 63.2266 92.9609 63.2266ZM85.9375 68.75C85.0781 68.75 84.375 68.0469 84.375 67.1875V61.2578C84.375 60.7891 84.7578 60.4766 85.1641 60.4766C85.3594 60.4766 85.5547 60.5469 85.7109 60.7031L92.4219 67.4141C92.9141 67.9062 92.5625 68.75 91.8672 68.75H85.9375ZM92.9609 78.8516C92.7656 78.8516 92.5703 78.7812 92.4141 78.625L87 73.2109C86.5078 72.7188 86.8594 71.875 87.5547 71.875H92.1875C93.0469 71.875 93.75 72.5781 93.75 73.4375V78.0703C93.75 78.5391 93.3672 78.8516 92.9609 78.8516ZM85.9375 84.375C85.0781 84.375 84.375 83.6719 84.375 82.8125V76.8828C84.375 76.4141 84.7578 76.1016 85.1641 76.1016C85.3594 76.1016 85.5547 76.1719 85.7109 76.3281L92.4219 83.0391C92.9141 83.5312 92.5625 84.375 91.8672 84.375H85.9375ZM92.9609 94.4766C92.7656 94.4766 92.5703 94.4062 92.4141 94.25L87 88.8359C86.5078 88.3438 86.8594 87.5 87.5547 87.5H92.1875C93.0469 87.5 93.75 88.2031 93.75 89.0625V93.6953C93.75 94.1641 93.3672 94.4766 92.9609 94.4766ZM85.9375 100C85.0781 100 84.375 99.2969 84.375 98.4375V92.5078C84.375 92.0391 84.7578 91.7266 85.1641 91.7266C85.3594 91.7266 85.5547 91.7969 85.7109 91.9531L92.4219 98.6641C92.9141 99.1562 92.5625 100 91.8672 100H85.9375Z" fill="#424242"/>
<path d="M55.2109 37.5V103.125H70.8359V37.5H55.2109ZM58.3359 98.4375V92.5078C58.3359 91.8125 59.1797 91.4609 59.6719 91.9531L66.3828 98.6641C66.875 99.1562 66.5234 100 65.8281 100H59.8984C59.484 100 59.0866 99.8354 58.7936 99.5424C58.5006 99.2493 58.3359 98.8519 58.3359 98.4375ZM66.375 94.25L60.9609 88.8359C60.4688 88.3438 60.8203 87.5 61.5156 87.5H66.1484C67.0078 87.5 67.7109 88.2031 67.7109 89.0625V93.6953C67.7109 94.3906 66.8672 94.7422 66.375 94.25ZM58.3359 82.8125V76.8828C58.3359 76.1875 59.1797 75.8359 59.6719 76.3281L66.3828 83.0391C66.875 83.5312 66.5234 84.375 65.8281 84.375H59.8984C59.484 84.375 59.0866 84.2104 58.7936 83.9174C58.5006 83.6243 58.3359 83.2269 58.3359 82.8125ZM66.375 78.625L60.9609 73.2109C60.4688 72.7188 60.8203 71.875 61.5156 71.875H66.1484C67.0078 71.875 67.7109 72.5781 67.7109 73.4375V78.0703C67.7109 78.7656 66.8672 79.1172 66.375 78.625ZM58.3359 67.1875V61.2578C58.3359 60.5625 59.1797 60.2109 59.6719 60.7031L66.3828 67.4141C66.875 67.9062 66.5234 68.75 65.8281 68.75H59.8984C59.484 68.75 59.0866 68.5854 58.7936 68.2924C58.5006 67.9993 58.3359 67.6019 58.3359 67.1875ZM66.375 63L60.9609 57.5859C60.4688 57.0938 60.8203 56.25 61.5156 56.25H66.1484C67.0078 56.25 67.7109 56.9531 67.7109 57.8125V62.4453C67.7109 63.1406 66.8672 63.4922 66.375 63ZM58.3359 51.5625V45.6328C58.3359 44.9375 59.1797 44.5859 59.6719 45.0781L66.3828 51.7891C66.875 52.2813 66.5234 53.125 65.8281 53.125H59.8984C59.484 53.125 59.0866 52.9604 58.7936 52.6674C58.5006 52.3743 58.3359 51.9769 58.3359 51.5625ZM66.375 47.375L60.9609 41.9609C60.4688 41.4687 60.8203 40.625 61.5156 40.625H66.1484C67.0078 40.625 67.7109 41.3281 67.7109 42.1875V46.8203C67.7109 47.5156 66.8672 47.8672 66.375 47.375ZM65.8203 37.5H59.8906H65.8203Z" fill="url(#paint2_linear)"/>
<path opacity="0.2" d="M70.0547 38.2812V102.344H55.9922V38.2812H70.0547ZM66.9219 48.3828C67.7891 48.3828 68.4922 47.6797 68.4922 46.8203V42.1875C68.4922 40.8984 67.4375 39.8438 66.1484 39.8438H61.5156C60.8828 39.8438 60.3125 40.2187 60.0703 40.8047C59.8281 41.3906 59.9609 42.0625 60.4063 42.5078L65.8203 47.9219C66.1172 48.2188 66.5078 48.3828 66.9219 48.3828ZM59.8984 53.9062H65.8281C66.4609 53.9062 67.0313 53.5312 67.2734 52.9453C67.5156 52.3594 67.3828 51.6875 66.9375 51.2422L60.2188 44.5312C59.9219 44.2344 59.5312 44.0703 59.1172 44.0703C58.25 44.0703 57.5469 44.7734 57.5469 45.6328V51.5625C57.5547 52.8516 58.6016 53.9062 59.8984 53.9062ZM66.9219 64.0078C67.7891 64.0078 68.4922 63.3047 68.4922 62.4453V57.8125C68.4922 56.5234 67.4375 55.4688 66.1484 55.4688H61.5156C60.8828 55.4688 60.3125 55.8438 60.0703 56.4297C59.8281 57.0156 59.9609 57.6875 60.4063 58.1328L65.8203 63.5469C66.1172 63.8437 66.5078 64.0078 66.9219 64.0078ZM59.8984 69.5312H65.8281C66.4609 69.5312 67.0313 69.1562 67.2734 68.5703C67.5156 67.9844 67.3828 67.3125 66.9375 66.8672L60.2188 60.1562C59.9219 59.8594 59.5312 59.6953 59.1172 59.6953C58.25 59.6953 57.5469 60.3984 57.5469 61.2578V67.1875C57.5547 68.4766 58.6016 69.5312 59.8984 69.5312ZM66.9219 79.6328C67.7891 79.6328 68.4922 78.9297 68.4922 78.0703V73.4375C68.4922 72.1484 67.4375 71.0938 66.1484 71.0938H61.5156C60.8828 71.0938 60.3125 71.4688 60.0703 72.0547C59.8281 72.6406 59.9609 73.3125 60.4063 73.7578L65.8203 79.1719C66.1172 79.4687 66.5078 79.6328 66.9219 79.6328ZM59.8984 85.1562H65.8281C66.4609 85.1562 67.0313 84.7812 67.2734 84.1953C67.5156 83.6094 67.3828 82.9375 66.9375 82.4922L60.2188 75.7812C59.9219 75.4844 59.5312 75.3203 59.1172 75.3203C58.25 75.3203 57.5469 76.0234 57.5469 76.8828V82.8125C57.5547 84.1016 58.6016 85.1562 59.8984 85.1562ZM66.9219 95.2578C67.7891 95.2578 68.4922 94.5547 68.4922 93.6953V89.0625C68.4922 87.7734 67.4375 86.7188 66.1484 86.7188H61.5156C60.8828 86.7188 60.3125 87.0938 60.0703 87.6797C59.8281 88.2656 59.9609 88.9375 60.4063 89.3828L65.8203 94.7969C66.1172 95.0937 66.5078 95.2578 66.9219 95.2578ZM59.8984 100.781H65.8281C66.4609 100.781 67.0313 100.406 67.2734 99.8203C67.5156 99.2344 67.3828 98.5625 66.9375 98.1172L60.2188 91.4062C59.9219 91.1094 59.5312 90.9453 59.1172 90.9453C58.25 90.9453 57.5469 91.6484 57.5469 92.5078V98.4375C57.5547 99.7266 58.6016 100.781 59.8984 100.781ZM70.8359 37.5H55.2109V103.125H70.8359V37.5ZM66.9219 47.6016C66.7266 47.6016 66.5313 47.5312 66.375 47.375L60.9609 41.9609C60.4688 41.4687 60.8203 40.625 61.5156 40.625H66.1484C67.0078 40.625 67.7109 41.3281 67.7109 42.1875V46.8203C67.7109 47.2891 67.3203 47.6016 66.9219 47.6016ZM59.8984 53.125C59.0391 53.125 58.3359 52.4219 58.3359 51.5625V45.6328C58.3359 45.1641 58.7188 44.8516 59.125 44.8516C59.3203 44.8516 59.5156 44.9219 59.6719 45.0781L66.3828 51.7891C66.875 52.2813 66.5234 53.125 65.8281 53.125H59.8984ZM66.9219 63.2266C66.7266 63.2266 66.5313 63.1562 66.375 63L60.9609 57.5859C60.4688 57.0938 60.8203 56.25 61.5156 56.25H66.1484C67.0078 56.25 67.7109 56.9531 67.7109 57.8125V62.4453C67.7109 62.9141 67.3203 63.2266 66.9219 63.2266ZM59.8984 68.75C59.0391 68.75 58.3359 68.0469 58.3359 67.1875V61.2578C58.3359 60.7891 58.7188 60.4766 59.125 60.4766C59.3203 60.4766 59.5156 60.5469 59.6719 60.7031L66.3828 67.4141C66.875 67.9062 66.5234 68.75 65.8281 68.75H59.8984ZM66.9219 78.8516C66.7266 78.8516 66.5313 78.7812 66.375 78.625L60.9609 73.2109C60.4688 72.7188 60.8203 71.875 61.5156 71.875H66.1484C67.0078 71.875 67.7109 72.5781 67.7109 73.4375V78.0703C67.7109 78.5391 67.3203 78.8516 66.9219 78.8516ZM59.8984 84.375C59.0391 84.375 58.3359 83.6719 58.3359 82.8125V76.8828C58.3359 76.4141 58.7188 76.1016 59.125 76.1016C59.3203 76.1016 59.5156 76.1719 59.6719 76.3281L66.3828 83.0391C66.875 83.5312 66.5234 84.375 65.8281 84.375H59.8984ZM66.9219 94.4766C66.7266 94.4766 66.5313 94.4062 66.375 94.25L60.9609 88.8359C60.4688 88.3438 60.8203 87.5 61.5156 87.5H66.1484C67.0078 87.5 67.7109 88.2031 67.7109 89.0625V93.6953C67.7109 94.1641 67.3203 94.4766 66.9219 94.4766ZM59.8984 100C59.0391 100 58.3359 99.2969 58.3359 98.4375V92.5078C58.3359 92.0391 58.7188 91.7266 59.125 91.7266C59.3203 91.7266 59.5156 91.7969 59.6719 91.9531L66.3828 98.6641C66.875 99.1562 66.5234 100 65.8281 100H59.8984Z" fill="#424242"/>
<path d="M29.1641 37.5V103.125H44.7891V37.5H29.1641ZM32.2891 98.4375V92.5078C32.2891 91.8125 33.1328 91.4609 33.625 91.9531L40.3359 98.6641C40.8281 99.1562 40.4766 100 39.7812 100H33.8516C32.9922 100 32.2891 99.2969 32.2891 98.4375ZM40.3359 94.25L34.9219 88.8359C34.4297 88.3438 34.7812 87.5 35.4766 87.5H40.1094C40.9688 87.5 41.6719 88.2031 41.6719 89.0625V93.6953C41.6641 94.3906 40.8281 94.7422 40.3359 94.25ZM32.2891 82.8125V76.8828C32.2891 76.1875 33.1328 75.8359 33.625 76.3281L40.3359 83.0391C40.8281 83.5312 40.4766 84.375 39.7812 84.375H33.8516C32.9922 84.375 32.2891 83.6719 32.2891 82.8125ZM40.3359 78.625L34.9219 73.2109C34.4297 72.7188 34.7734 71.875 35.4688 71.875H40.1016C40.9609 71.875 41.6641 72.5781 41.6641 73.4375V78.0703C41.6641 78.7656 40.8281 79.1172 40.3359 78.625ZM32.2891 67.1875V61.2578C32.2891 60.5625 33.1328 60.2109 33.625 60.7031L40.3359 67.4141C40.8281 67.9062 40.4766 68.75 39.7812 68.75H33.8516C32.9922 68.75 32.2891 68.0469 32.2891 67.1875ZM40.3359 63L34.9219 57.5859C34.4297 57.0938 34.7734 56.25 35.4688 56.25H40.1016C40.9609 56.25 41.6641 56.9531 41.6641 57.8125V62.4453C41.6641 63.1406 40.8281 63.4922 40.3359 63ZM32.2891 51.5625V45.6328C32.2891 44.9375 33.1328 44.5859 33.625 45.0781L40.3359 51.7891C40.8281 52.2813 40.4766 53.125 39.7812 53.125H33.8516C32.9922 53.125 32.2891 52.4219 32.2891 51.5625ZM40.3359 47.375L34.9219 41.9609C34.4297 41.4687 34.7734 40.625 35.4688 40.625H40.1016C40.9609 40.625 41.6641 41.3281 41.6641 42.1875V46.8203C41.6641 47.5156 40.8281 47.8672 40.3359 47.375ZM39.7812 37.5H33.8516H39.7812Z" fill="url(#paint3_linear)"/>
<path opacity="0.2" d="M44.0078 38.2812V102.344H29.9453V38.2812H44.0078ZM40.8828 48.3828C41.75 48.3828 42.4531 47.6797 42.4531 46.8203V42.1875C42.4531 40.8984 41.3984 39.8438 40.1094 39.8438H35.4688C34.8359 39.8438 34.2656 40.2187 34.0234 40.8047C33.7812 41.3906 33.9141 42.0625 34.3594 42.5078L39.7734 47.9219C40.0781 48.2188 40.4688 48.3828 40.8828 48.3828ZM33.8516 53.9062H39.7812C40.4141 53.9062 40.9844 53.5312 41.2266 52.9453C41.4688 52.3594 41.3359 51.6875 40.8906 51.2422L34.1797 44.5312C33.8828 44.2344 33.4922 44.0703 33.0781 44.0703C32.2109 44.0703 31.5078 44.7734 31.5078 45.6328V51.5625C31.5078 52.8516 32.5625 53.9062 33.8516 53.9062ZM40.8828 64.0078C41.75 64.0078 42.4531 63.3047 42.4531 62.4453V57.8125C42.4531 56.5234 41.3984 55.4688 40.1094 55.4688H35.4688C34.8359 55.4688 34.2656 55.8438 34.0234 56.4297C33.7812 57.0156 33.9141 57.6875 34.3594 58.1328L39.7734 63.5469C40.0781 63.8437 40.4688 64.0078 40.8828 64.0078ZM33.8516 69.5312H39.7812C40.4141 69.5312 40.9844 69.1562 41.2266 68.5703C41.4688 67.9844 41.3359 67.3125 40.8906 66.8672L34.1797 60.1562C33.8828 59.8594 33.4922 59.6953 33.0781 59.6953C32.2109 59.6953 31.5078 60.3984 31.5078 61.2578V67.1875C31.5078 68.4766 32.5625 69.5312 33.8516 69.5312ZM40.8828 79.6328C41.75 79.6328 42.4531 78.9297 42.4531 78.0703V73.4375C42.4531 72.1484 41.3984 71.0938 40.1094 71.0938H35.4688C34.8359 71.0938 34.2656 71.4688 34.0234 72.0547C33.7812 72.6406 33.9141 73.3125 34.3594 73.7578L39.7734 79.1719C40.0781 79.4687 40.4688 79.6328 40.8828 79.6328ZM33.8516 85.1562H39.7812C40.4141 85.1562 40.9844 84.7812 41.2266 84.1953C41.4688 83.6094 41.3359 82.9375 40.8906 82.4922L34.1797 75.7812C33.8828 75.4844 33.4922 75.3203 33.0781 75.3203C32.2109 75.3203 31.5078 76.0234 31.5078 76.8828V82.8125C31.5078 84.1016 32.5625 85.1562 33.8516 85.1562ZM40.8828 95.2578C41.75 95.2578 42.4531 94.5547 42.4531 93.6953V89.0625C42.4531 87.7734 41.3984 86.7188 40.1094 86.7188H35.4688C34.8359 86.7188 34.2656 87.0938 34.0234 87.6797C33.7812 88.2656 33.9141 88.9375 34.3594 89.3828L39.7734 94.7969C40.0781 95.0937 40.4688 95.2578 40.8828 95.2578ZM33.8516 100.781H39.7812C40.4141 100.781 40.9844 100.406 41.2266 99.8203C41.4688 99.2344 41.3359 98.5625 40.8906 98.1172L34.1797 91.4062C33.8828 91.1094 33.4922 90.9453 33.0781 90.9453C32.2109 90.9453 31.5078 91.6484 31.5078 92.5078V98.4375C31.5078 99.7266 32.5625 100.781 33.8516 100.781ZM44.7891 37.5H29.1641V103.125H44.7891V37.5ZM40.8828 47.6016C40.6875 47.6016 40.4922 47.5312 40.3359 47.375L34.9219 41.9609C34.4297 41.4687 34.7734 40.625 35.4688 40.625H40.1016C40.9609 40.625 41.6641 41.3281 41.6641 42.1875V46.8203C41.6641 47.2891 41.2813 47.6016 40.8828 47.6016ZM33.8516 53.125C32.9922 53.125 32.2891 52.4219 32.2891 51.5625V45.6328C32.2891 45.1641 32.6719 44.8516 33.0781 44.8516C33.2734 44.8516 33.4688 44.9219 33.625 45.0781L40.3359 51.7891C40.8281 52.2813 40.4766 53.125 39.7812 53.125H33.8516ZM40.8828 63.2266C40.6875 63.2266 40.4922 63.1562 40.3359 63L34.9219 57.5859C34.4297 57.0938 34.7734 56.25 35.4688 56.25H40.1016C40.9609 56.25 41.6641 56.9531 41.6641 57.8125V62.4453C41.6641 62.9141 41.2813 63.2266 40.8828 63.2266ZM33.8516 68.75C32.9922 68.75 32.2891 68.0469 32.2891 67.1875V61.2578C32.2891 60.7891 32.6719 60.4766 33.0781 60.4766C33.2734 60.4766 33.4688 60.5469 33.625 60.7031L40.3359 67.4141C40.8281 67.9062 40.4766 68.75 39.7812 68.75H33.8516ZM40.8828 78.8516C40.6875 78.8516 40.4922 78.7812 40.3359 78.625L34.9219 73.2109C34.4297 72.7188 34.7734 71.875 35.4688 71.875H40.1016C40.9609 71.875 41.6641 72.5781 41.6641 73.4375V78.0703C41.6641 78.5391 41.2813 78.8516 40.8828 78.8516ZM33.8516 84.375C32.9922 84.375 32.2891 83.6719 32.2891 82.8125V76.8828C32.2891 76.4141 32.6719 76.1016 33.0781 76.1016C33.2734 76.1016 33.4688 76.1719 33.625 76.3281L40.3359 83.0391C40.8281 83.5312 40.4766 84.375 39.7812 84.375H33.8516ZM40.8828 94.4766C40.6875 94.4766 40.4922 94.4062 40.3359 94.25L34.9219 88.8359C34.4297 88.3438 34.7812 87.5 35.4766 87.5H40.1094C40.9688 87.5 41.6719 88.2031 41.6719 89.0625V93.6953C41.6641 94.1641 41.2813 94.4766 40.8828 94.4766ZM33.8516 100C32.9922 100 32.2891 99.2969 32.2891 98.4375V92.5078C32.2891 92.0391 32.6719 91.7266 33.0781 91.7266C33.2734 91.7266 33.4688 91.7969 33.625 91.9531L40.3359 98.6641C40.8281 99.1562 40.4766 100 39.7812 100H33.8516Z" fill="#424242"/>
<path d="M3.125 37.5V103.125H18.75V37.5H3.125ZM6.25 98.4375V92.5078C6.25 91.8125 7.09375 91.4609 7.58594 91.9531L14.2969 98.6641C14.7891 99.1562 14.4375 100 13.7422 100H7.8125C6.95312 100 6.25 99.2969 6.25 98.4375ZM14.2891 94.25L8.875 88.8359C8.38281 88.3438 8.73438 87.5 9.42969 87.5H14.0625C14.9219 87.5 15.625 88.2031 15.625 89.0625V93.6953C15.625 94.3906 14.7813 94.7422 14.2891 94.25ZM6.25 82.8125V76.8828C6.25 76.1875 7.09375 75.8359 7.58594 76.3281L14.2969 83.0391C14.7891 83.5312 14.4375 84.375 13.7422 84.375H7.8125C6.95312 84.375 6.25 83.6719 6.25 82.8125ZM14.2891 78.625L8.875 73.2109C8.38281 72.7188 8.73438 71.875 9.42969 71.875H14.0625C14.9219 71.875 15.625 72.5781 15.625 73.4375V78.0703C15.625 78.7656 14.7813 79.1172 14.2891 78.625ZM6.25 67.1875V61.2578C6.25 60.5625 7.09375 60.2109 7.58594 60.7031L14.2969 67.4141C14.7891 67.9062 14.4375 68.75 13.7422 68.75H7.8125C6.95312 68.75 6.25 68.0469 6.25 67.1875ZM14.2891 63L8.875 57.5859C8.38281 57.0938 8.73438 56.25 9.42969 56.25H14.0625C14.9219 56.25 15.625 56.9531 15.625 57.8125V62.4453C15.625 63.1406 14.7813 63.4922 14.2891 63ZM6.25 51.5625V45.6328C6.25 44.9375 7.09375 44.5859 7.58594 45.0781L14.2969 51.7891C14.7891 52.2813 14.4375 53.125 13.7422 53.125H7.8125C6.95312 53.125 6.25 52.4219 6.25 51.5625ZM14.2891 47.375L8.875 41.9609C8.38281 41.4687 8.73438 40.625 9.42969 40.625H14.0625C14.9219 40.625 15.625 41.3281 15.625 42.1875V46.8203C15.625 47.5156 14.7813 47.8672 14.2891 47.375ZM13.7422 37.5H7.8125H13.7422Z" fill="url(#paint4_linear)"/>
<path opacity="0.2" d="M17.9688 38.2812V102.344H3.90625V38.2812H17.9688ZM14.8359 48.3828C15.7031 48.3828 16.4062 47.6797 16.4062 46.8203V42.1875C16.4062 40.8984 15.3516 39.8438 14.0625 39.8438H9.42969C8.79687 39.8438 8.22656 40.2187 7.98438 40.8047C7.74219 41.3906 7.875 42.0625 8.32031 42.5078L13.7344 47.9219C14.0312 48.2188 14.4219 48.3828 14.8359 48.3828ZM7.8125 53.9062H13.7422C14.375 53.9062 14.9453 53.5312 15.1875 52.9453C15.4297 52.3594 15.2969 51.6875 14.8516 51.2422L8.13281 44.5312C7.83594 44.2344 7.44531 44.0703 7.03125 44.0703C6.16406 44.0703 5.46094 44.7734 5.46094 45.6328V51.5625C5.46875 52.8516 6.52344 53.9062 7.8125 53.9062ZM14.8359 64.0078C15.7031 64.0078 16.4062 63.3047 16.4062 62.4453V57.8125C16.4062 56.5234 15.3516 55.4688 14.0625 55.4688H9.42969C8.79687 55.4688 8.22656 55.8438 7.98438 56.4297C7.74219 57.0156 7.875 57.6875 8.32031 58.1328L13.7344 63.5469C14.0312 63.8437 14.4219 64.0078 14.8359 64.0078ZM7.8125 69.5312H13.7422C14.375 69.5312 14.9453 69.1562 15.1875 68.5703C15.4297 67.9844 15.2969 67.3125 14.8516 66.8672L8.13281 60.1562C7.83594 59.8594 7.44531 59.6953 7.03125 59.6953C6.16406 59.6953 5.46094 60.3984 5.46094 61.2578V67.1875C5.46875 68.4766 6.52344 69.5312 7.8125 69.5312ZM14.8359 79.6328C15.7031 79.6328 16.4062 78.9297 16.4062 78.0703V73.4375C16.4062 72.1484 15.3516 71.0938 14.0625 71.0938H9.42969C8.79687 71.0938 8.22656 71.4688 7.98438 72.0547C7.74219 72.6406 7.875 73.3125 8.32031 73.7578L13.7344 79.1719C14.0312 79.4687 14.4219 79.6328 14.8359 79.6328ZM7.8125 85.1562H13.7422C14.375 85.1562 14.9453 84.7812 15.1875 84.1953C15.4297 83.6094 15.2969 82.9375 14.8516 82.4922L8.13281 75.7812C7.83594 75.4844 7.44531 75.3203 7.03125 75.3203C6.16406 75.3203 5.46094 76.0234 5.46094 76.8828V82.8125C5.46875 84.1016 6.52344 85.1562 7.8125 85.1562ZM14.8359 95.2578C15.7031 95.2578 16.4062 94.5547 16.4062 93.6953V89.0625C16.4062 87.7734 15.3516 86.7188 14.0625 86.7188H9.42969C8.79687 86.7188 8.22656 87.0938 7.98438 87.6797C7.74219 88.2656 7.875 88.9375 8.32031 89.3828L13.7344 94.7969C14.0312 95.0937 14.4219 95.2578 14.8359 95.2578ZM7.8125 100.781H13.7422C14.375 100.781 14.9453 100.406 15.1875 99.8203C15.4297 99.2344 15.2969 98.5625 14.8516 98.1172L8.13281 91.4062C7.83594 91.1094 7.44531 90.9453 7.03125 90.9453C6.16406 90.9453 5.46094 91.6484 5.46094 92.5078V98.4375C5.46875 99.7266 6.52344 100.781 7.8125 100.781ZM18.75 37.5H3.125V103.125H18.75V37.5ZM14.8359 47.6016C14.6406 47.6016 14.4453 47.5312 14.2891 47.375L8.875 41.9609C8.38281 41.4687 8.73438 40.625 9.42969 40.625H14.0625C14.9219 40.625 15.625 41.3281 15.625 42.1875V46.8203C15.625 47.2891 15.2422 47.6016 14.8359 47.6016ZM7.8125 53.125C6.95312 53.125 6.25 52.4219 6.25 51.5625V45.6328C6.25 45.1641 6.63281 44.8516 7.03906 44.8516C7.23438 44.8516 7.42969 44.9219 7.58594 45.0781L14.2969 51.7891C14.7891 52.2813 14.4375 53.125 13.7422 53.125H7.8125ZM14.8359 63.2266C14.6406 63.2266 14.4453 63.1562 14.2891 63L8.875 57.5859C8.38281 57.0938 8.73438 56.25 9.42969 56.25H14.0625C14.9219 56.25 15.625 56.9531 15.625 57.8125V62.4453C15.625 62.9141 15.2422 63.2266 14.8359 63.2266ZM7.8125 68.75C6.95312 68.75 6.25 68.0469 6.25 67.1875V61.2578C6.25 60.7891 6.63281 60.4766 7.03906 60.4766C7.23438 60.4766 7.42969 60.5469 7.58594 60.7031L14.2969 67.4141C14.7891 67.9062 14.4375 68.75 13.7422 68.75H7.8125ZM14.8359 78.8516C14.6406 78.8516 14.4453 78.7812 14.2891 78.625L8.875 73.2109C8.38281 72.7188 8.73438 71.875 9.42969 71.875H14.0625C14.9219 71.875 15.625 72.5781 15.625 73.4375V78.0703C15.625 78.5391 15.2422 78.8516 14.8359 78.8516ZM7.8125 84.375C6.95312 84.375 6.25 83.6719 6.25 82.8125V76.8828C6.25 76.4141 6.63281 76.1016 7.03906 76.1016C7.23438 76.1016 7.42969 76.1719 7.58594 76.3281L14.2969 83.0391C14.7891 83.5312 14.4375 84.375 13.7422 84.375H7.8125ZM14.8359 94.4766C14.6406 94.4766 14.4453 94.4062 14.2891 94.25L8.875 88.8359C8.38281 88.3438 8.73438 87.5 9.42969 87.5H14.0625C14.9219 87.5 15.625 88.2031 15.625 89.0625V93.6953C15.625 94.1641 15.2422 94.4766 14.8359 94.4766ZM7.8125 100C6.95312 100 6.25 99.2969 6.25 98.4375V92.5078C6.25 92.0391 6.63281 91.7266 7.03906 91.7266C7.23438 91.7266 7.42969 91.7969 7.58594 91.9531L14.2969 98.6641C14.7891 99.1562 14.4375 100 13.7422 100H7.8125Z" fill="#424242"/>
<path d="M29.5473 78.9765C27.9458 78.9608 26.352 78.8202 24.7661 78.5468C9.51608 75.9843 0.578584 62.9061 0.203584 62.3515C-0.0542285 61.9765 0.047334 61.4608 0.430147 61.203C0.812959 60.953 1.32077 61.0468 1.57858 61.4296C1.66452 61.5624 10.5083 74.4843 25.0551 76.9296C34.1958 78.4686 43.6567 75.5936 53.188 68.4061C84.4067 44.8515 99.6255 29.4843 99.7739 29.3358C100.094 29.0077 100.618 29.0077 100.946 29.328C101.274 29.6483 101.274 30.1718 100.954 30.4999C100.805 30.6561 85.5161 46.1015 54.1801 69.7343C45.9067 75.9608 37.6411 79.0624 29.5473 78.9765Z" fill="#C62828"/>
<path d="M96.7188 28.8203C89.8281 35.3515 75.5625 48.25 53.5156 65.25C44.2188 72.4219 35.0156 75.3594 26.1719 73.9922C15.2891 72.3047 6.25 63.5312 3.21875 59.9609C2.74219 59.3984 1.82812 59.7344 1.82812 60.4765V68.5547C6.53906 73 15.3047 79.2969 25.0391 80.8281C26.8438 81.1094 28.6641 81.2578 30.4766 81.2578C39.5312 81.2578 48.6719 77.7344 57.7422 70.7422C76.9688 55.914 90.2422 44.2812 98.0469 37.0781V29.4062C98.0469 28.7031 97.2188 28.3437 96.7188 28.8203Z" fill="#B71C1C"/>
<path d="M78.1019 36.1954L67.1879 22.8829C66.9847 22.6329 66.2582 32.6329 64.0863 35.297C63.6254 35.8595 63.1097 36.3907 62.5238 36.8751C58.805 39.9298 54.0785 40.4376 50.8988 37.3595C50.6254 37.0938 50.2269 37.086 49.93 37.2813C46.6722 39.4532 44.5785 44.0392 43.5941 47.672C42.5863 51.3829 42.4222 55.3048 42.9925 59.1017C43.3441 61.4142 43.8832 65.5079 47.1644 64.7892C48.0316 64.6017 48.8285 64.1563 49.516 63.5938L77.6644 40.586C77.982 40.3269 78.2453 40.0076 78.4393 39.6464C78.6332 39.2853 78.754 38.8894 78.7946 38.4815C78.8353 38.0736 78.795 37.6617 78.6761 37.2694C78.5573 36.8771 78.3621 36.5121 78.1019 36.1954Z" fill="url(#paint5_linear)"/>
<path d="M74.2739 31.4141C72.938 32.5078 63.3911 40.375 61.6802 41.7422C55.0317 47.0313 54.9771 59.1484 54.9771 59.1484L77.6646 40.5938C79.0005 39.5 79.188 37.4219 78.0942 36.0859L74.2739 31.4141Z" fill="#F4511E"/>
<path d="M107.82 12.7969L103.305 7.35938L81.2343 24.5938C80.9919 24.7835 80.7144 24.9235 80.4177 25.0058C80.121 25.0881 79.811 25.111 79.5055 25.0733C79.1999 25.0355 78.9048 24.9379 78.6371 24.7859C78.3694 24.6339 78.1343 24.4305 77.9453 24.1875L73.289 18.2266L70.0234 20.9375C69.546 21.3344 69.2458 21.9047 69.1887 22.5229C69.1315 23.1411 69.3222 23.7567 69.7187 24.2344L79.6328 36.1875C80.0297 36.6649 80.5999 36.9651 81.2181 37.0222C81.8363 37.0794 82.4519 36.8887 82.9296 36.4922L107.508 16.1016C107.986 15.7041 108.288 15.1332 108.347 14.5138C108.405 13.8944 108.216 13.277 107.82 12.7969Z" fill="url(#paint6_linear)"/>
<path d="M55.7187 61.5156C55.0078 61.5156 54.3515 61.1875 53.9218 60.6172C53.5662 60.141 53.4135 59.5435 53.4969 58.9551C53.5803 58.3666 53.8932 57.8351 54.3671 57.4766C54.7578 57.1797 55.2265 57.0312 55.7109 57.0312C56.4218 57.0312 57.0781 57.3594 57.5078 57.9297C57.8671 58.4063 58.0156 59 57.9374 59.5938C57.8515 60.1875 57.539 60.7109 57.0624 61.0703C56.6718 61.3594 56.2031 61.5156 55.7187 61.5156Z" fill="#FFF9C4"/>
<path d="M55.7111 58.0313C55.8881 58.0306 56.0632 58.0679 56.2245 58.1409C56.3858 58.2138 56.5295 58.3206 56.6459 58.454C56.7623 58.5874 56.8485 58.7443 56.8989 58.914C56.9492 59.0837 56.9625 59.2623 56.9377 59.4375C56.8908 59.7657 56.7189 60.0547 56.4533 60.25C56.3237 60.3483 56.1759 60.42 56.0184 60.4611C55.861 60.5021 55.697 60.5116 55.5358 60.4891C55.3747 60.4666 55.2196 60.4125 55.0794 60.3299C54.9392 60.2473 54.8167 60.1379 54.7189 60.0078C54.5236 59.7422 54.4377 59.4219 54.4846 59.0938C54.5314 58.7657 54.7033 58.4766 54.9689 58.2813C55.2502 58.0782 55.5236 58.0313 55.7111 58.0313ZM55.7111 56.0235C55.0314 56.0235 54.3439 56.2344 53.7658 56.6719C53.4242 56.9284 53.1364 57.2497 52.9189 57.6174C52.7014 57.9851 52.5585 58.392 52.4983 58.815C52.4381 59.2379 52.4618 59.6686 52.568 60.0824C52.6742 60.4961 52.8609 60.885 53.1174 61.2266C53.4205 61.63 53.8134 61.9572 54.265 62.1824C54.7165 62.4075 55.2144 62.5243 55.7189 62.5235C56.3986 62.5235 57.0861 62.3125 57.6643 61.875C58.0059 61.6185 58.2937 61.2973 58.5112 60.9296C58.7286 60.5619 58.8716 60.1549 58.9318 59.732C58.992 59.3091 58.9683 58.8784 58.8621 58.4646C58.7559 58.0508 58.5692 57.662 58.3127 57.3204C58.0108 56.9157 57.6181 56.5875 57.1663 56.3623C56.7144 56.137 56.216 56.021 55.7111 56.0235Z" fill="#424242"/>
<path d="M50.5149 65.4218C49.804 65.4218 49.1477 65.0937 48.718 64.5234C48.3587 64.0468 48.2102 63.4531 48.2884 62.8593C48.3743 62.2656 48.6868 61.7422 49.1634 61.3828C49.3984 61.2047 49.6663 61.0749 49.9518 61.0009C50.2372 60.9269 50.5344 60.9101 50.8264 60.9514C51.1183 60.9928 51.3992 61.0916 51.6528 61.2421C51.9064 61.3925 52.1277 61.5917 52.304 61.8281C52.6633 62.3047 52.8118 62.8984 52.7337 63.4922C52.6477 64.0859 52.343 64.6093 51.8587 64.9687C51.468 65.2656 51.0071 65.4218 50.5149 65.4218Z" fill="#FFF9C4"/>
<path d="M50.5153 61.9375C50.6924 61.9368 50.8675 61.9741 51.0287 62.0471C51.19 62.12 51.3337 62.2268 51.4501 62.3602C51.5665 62.4936 51.6527 62.6505 51.7031 62.8202C51.7534 62.9899 51.7667 63.1685 51.7419 63.3438C51.695 63.6719 51.5231 63.9609 51.2575 64.1563C51.1279 64.2545 50.9801 64.3262 50.8226 64.3673C50.6652 64.4083 50.5012 64.4178 50.34 64.3953C50.1789 64.3728 50.0238 64.3187 49.8836 64.2361C49.7434 64.1536 49.6209 64.0441 49.5231 63.9141C49.1169 63.3672 49.2263 62.5938 49.7731 62.1797C50.0466 61.9844 50.3278 61.9375 50.5153 61.9375ZM50.5153 59.9219C49.8357 59.9219 49.1481 60.1328 48.57 60.5703C48.2284 60.8268 47.9406 61.1481 47.7231 61.5158C47.5056 61.8835 47.3627 62.2904 47.3025 62.7134C47.2423 63.1363 47.266 63.567 47.3722 63.9808C47.4784 64.3945 47.6651 64.7834 47.9216 65.125C48.2247 65.5284 48.6176 65.8557 49.0692 66.0808C49.5207 66.3059 50.0186 66.4227 50.5231 66.4219C51.2028 66.4219 51.8903 66.2109 52.4685 65.7734C52.8101 65.517 53.0979 65.1957 53.3154 64.828C53.5328 64.4603 53.6758 64.0533 53.736 63.6304C53.7962 63.2075 53.7725 62.7768 53.6663 62.363C53.5601 61.9492 53.3734 61.5604 53.1169 61.2188C52.8126 60.8166 52.4195 60.4903 51.9682 60.2653C51.5169 60.0403 51.0196 59.9228 50.5153 59.9219Z" fill="#424242"/>
<path d="M76.9762 44.1562C76.2653 44.1562 75.609 43.8281 75.1793 43.2656C74.82 42.7891 74.6637 42.1953 74.7497 41.6016C74.8356 41.0078 75.1403 40.4844 75.6168 40.125C76.0075 39.8281 76.4762 39.6719 76.9684 39.6719C77.6793 39.6719 78.3356 40 78.7575 40.5625C79.4997 41.5469 79.3043 42.9609 78.32 43.7031C77.9293 44 77.4684 44.1562 76.9762 44.1562Z" fill="#FFF9C4"/>
<path d="M76.9688 40.6797C77.3594 40.6797 77.7188 40.8594 77.9609 41.1719C78.1563 41.4375 78.2422 41.7578 78.1953 42.0859C78.154 42.38 78.008 42.6494 77.7841 42.8445C77.5603 43.0397 77.2735 43.1476 76.9766 43.1484C76.5859 43.1484 76.2266 42.9688 75.9844 42.6563C75.7891 42.3906 75.7031 42.0703 75.75 41.7422C75.7914 41.4481 75.9373 41.1788 76.1612 40.9836C76.3851 40.7885 76.6718 40.6806 76.9688 40.6797ZM76.9688 38.6641C76.1068 38.6651 75.2806 39.0085 74.6718 39.6187C74.063 40.229 73.7216 41.056 73.7227 41.918C73.7237 42.7799 74.0671 43.6062 74.6773 44.2149C75.2876 44.8237 76.1146 45.1651 76.9766 45.1641C77.5808 45.163 78.1728 44.9935 78.686 44.6746C79.1992 44.3557 79.6134 43.9 79.882 43.3588C80.1506 42.8175 80.263 42.2121 80.2065 41.6105C80.1501 41.0089 79.9271 40.435 79.5625 39.9531C79.26 39.5516 78.8681 39.226 78.4179 39.0023C77.9677 38.7785 77.4715 38.6627 76.9688 38.6641Z" fill="#424242"/>
<path d="M72.0001 48.4219C71.2892 48.4219 70.633 48.0938 70.2111 47.5313C69.8517 47.0547 69.6955 46.4609 69.7814 45.8672C69.8673 45.2734 70.172 44.75 70.6486 44.3906C71.0392 44.0937 71.508 43.9375 72.0001 43.9375C72.7111 43.9375 73.3673 44.2656 73.7892 44.8281C74.5314 45.8125 74.3361 47.2266 73.3517 47.9688C72.9611 48.2578 72.4923 48.4219 72.0001 48.4219Z" fill="#FFF9C4"/>
<path d="M72.0005 44.9375C72.3911 44.9375 72.7505 45.1172 72.9927 45.4297C73.4067 45.9766 73.2974 46.75 72.7505 47.1641C72.4771 47.3672 72.1958 47.4141 72.0083 47.4141C71.6177 47.4141 71.2583 47.2344 71.0161 46.9219C70.8208 46.6563 70.7349 46.3359 70.7817 46.0078C70.8286 45.6797 71.0005 45.3906 71.2583 45.1953C71.5317 44.9844 71.813 44.9375 72.0005 44.9375ZM72.0005 42.9219C71.1385 42.9229 70.3123 43.2663 69.7035 43.8765C69.0948 44.4868 68.7534 45.3138 68.7544 46.1758C68.7554 47.0377 69.0988 47.864 69.7091 48.4727C70.3193 49.0815 71.1464 49.4229 72.0083 49.4219C72.8703 49.4208 73.6965 49.0774 74.3053 48.4672C74.914 47.857 75.2554 47.0299 75.2544 46.168C75.2534 45.306 74.91 44.4798 74.2997 43.871C73.6895 43.2623 72.8625 42.9208 72.0005 42.9219Z" fill="#424242"/>
<path d="M89.8123 33.6094C89.1014 33.6094 88.4452 33.2813 88.0233 32.7188C87.6668 32.2435 87.5128 31.6466 87.5948 31.0583C87.6767 30.4699 87.988 29.9378 88.4608 29.5781C88.8514 29.2813 89.3202 29.125 89.8123 29.125C90.5233 29.125 91.1795 29.4531 91.6014 30.0156C92.3436 31 92.1483 32.4141 91.1639 33.1562C90.7733 33.4531 90.3045 33.6094 89.8123 33.6094Z" fill="#FFF9C4"/>
<path d="M89.8047 30.1328C90.1953 30.1328 90.5547 30.3125 90.7969 30.625C90.9922 30.8906 91.0781 31.2109 91.0313 31.5391C90.9899 31.8332 90.8439 32.1025 90.6201 32.2976C90.3962 32.4928 90.1095 32.6007 89.8125 32.6016C89.4219 32.6016 89.0625 32.4219 88.8203 32.1094C88.625 31.8438 88.5391 31.5234 88.5859 31.1953C88.6273 30.9012 88.7733 30.6319 88.9971 30.4368C89.221 30.2416 89.5077 30.1337 89.8047 30.1328ZM89.8047 28.1172C88.9427 28.1182 88.1165 28.4616 87.5077 29.0719C86.899 29.6821 86.5576 30.5092 86.5586 31.3711C86.5596 32.2331 86.903 33.0593 87.5133 33.6681C88.1235 34.2768 88.9505 34.6182 89.8125 34.6172C90.4167 34.6161 91.0087 34.4466 91.5219 34.1277C92.0352 33.8088 92.4493 33.3532 92.7179 32.8119C92.9865 32.2707 93.0989 31.6652 93.0425 31.0637C92.986 30.4621 92.763 29.8881 92.3984 29.4063C92.0959 29.0047 91.704 28.6792 91.2538 28.4554C90.8036 28.2317 90.3074 28.1159 89.8047 28.1172Z" fill="#424242"/>
<path d="M84.8361 37.8672C84.1251 37.8672 83.4689 37.5391 83.047 36.9766C82.6876 36.5 82.5314 35.9063 82.6173 35.3125C82.7033 34.7188 83.008 34.1953 83.4845 33.8359C83.8751 33.5391 84.3439 33.3828 84.8361 33.3828C85.547 33.3828 86.2033 33.7109 86.6251 34.2734C87.3673 35.2578 87.172 36.6719 86.1876 37.4141C85.797 37.7109 85.3283 37.8672 84.8361 37.8672Z" fill="#FFF9C4"/>
<path d="M84.8364 34.3906C85.2271 34.3906 85.5864 34.5703 85.8286 34.8828C86.0239 35.1484 86.1099 35.4688 86.063 35.7969C86.0216 36.091 85.8757 36.3603 85.6518 36.5554C85.4279 36.7506 85.1412 36.8585 84.8442 36.8594C84.4536 36.8594 84.0942 36.6797 83.8521 36.3672C83.6567 36.1016 83.5708 35.7813 83.6177 35.4531C83.659 35.159 83.805 34.8897 84.0289 34.6946C84.2527 34.4994 84.5394 34.3915 84.8364 34.3906ZM84.8364 32.375C83.9745 32.376 83.1482 32.7194 82.5395 33.3297C81.9307 33.9399 81.5893 34.767 81.5903 35.6289C81.5914 36.4909 81.9348 37.3171 82.545 37.9259C83.1552 38.5346 83.9823 38.876 84.8442 38.875C85.7062 38.874 86.5324 38.5306 87.1412 37.9203C87.75 37.3101 88.0914 36.4831 88.0903 35.6211C88.0893 34.7591 87.7459 33.9329 87.1357 33.3241C86.5254 32.7154 85.6984 32.374 84.8364 32.375Z" fill="#424242"/>
<path d="M37.0625 18.7734H37C37 16.834 36.2296 14.9741 34.8582 13.6027C33.4869 12.2314 31.6269 11.4609 29.6875 11.4609C26.7422 11.4609 24.2031 13.2109 23.0469 15.7266C22.2813 15.3203 21.4062 15.0859 20.4766 15.0859C18.0625 15.0859 16.0234 16.6328 15.2656 18.7891C15.1641 18.7812 15.0547 18.7734 14.9531 18.7734C12.9219 18.7734 11.2656 20.4219 11.2656 22.4609C11.2656 24.4922 12.9141 26.1484 14.9531 26.1484H37.0547C39.0859 26.1484 40.7422 24.5 40.7422 22.4609C40.7422 20.4297 39.0938 18.7734 37.0625 18.7734Z" fill="#FAFAFA"/>
<path opacity="0.2" d="M90.625 5.46875C92.7812 5.46875 94.5312 7.21875 94.5312 9.375V90.625C94.5312 92.7812 92.7812 94.5312 90.625 94.5312H9.375C7.21875 94.5312 5.46875 92.7812 5.46875 90.625V9.375C5.46875 7.21875 7.21875 5.46875 9.375 5.46875H90.625ZM90.625 3.125H9.375C5.92188 3.125 3.125 5.92188 3.125 9.375V90.625C3.125 94.0781 5.92188 96.875 9.375 96.875H90.625C94.0781 96.875 96.875 94.0781 96.875 90.625V9.375C96.875 5.92188 94.0781 3.125 90.625 3.125Z" fill="#424242"/>
</g>
<defs>
<linearGradient id="paint0_linear" x1="50" y1="3.64609" x2="50" y2="96.8984" gradientUnits="userSpaceOnUse">
<stop stop-color="#ACE3FC"/>
<stop offset="0.201" stop-color="#A2DFFC"/>
<stop offset="0.546" stop-color="#86D7FD"/>
<stop offset="0.99" stop-color="#5AC9FF"/>
<stop offset="1" stop-color="#59C9FF"/>
</linearGradient>
<linearGradient id="paint1_linear" x1="89.0625" y1="37.7602" x2="89.0625" y2="104.602" gradientUnits="userSpaceOnUse">
<stop offset="0.017" stop-color="#EF5350"/>
<stop offset="0.577" stop-color="#EA4642"/>
<stop offset="1" stop-color="#E53935"/>
</linearGradient>
<linearGradient id="paint2_linear" x1="63.0211" y1="37.7602" x2="63.0211" y2="104.602" gradientUnits="userSpaceOnUse">
<stop offset="0.017" stop-color="#EF5350"/>
<stop offset="0.577" stop-color="#EA4642"/>
<stop offset="1" stop-color="#E53935"/>
</linearGradient>
<linearGradient id="paint3_linear" x1="36.9789" y1="37.7602" x2="36.9789" y2="104.602" gradientUnits="userSpaceOnUse">
<stop offset="0.017" stop-color="#EF5350"/>
<stop offset="0.577" stop-color="#EA4642"/>
<stop offset="1" stop-color="#E53935"/>
</linearGradient>
<linearGradient id="paint4_linear" x1="10.9375" y1="37.7602" x2="10.9375" y2="104.602" gradientUnits="userSpaceOnUse">
<stop offset="0.017" stop-color="#EF5350"/>
<stop offset="0.577" stop-color="#EA4642"/>
<stop offset="1" stop-color="#E53935"/>
</linearGradient>
<linearGradient id="paint5_linear" x1="50.0038" y1="36.3672" x2="63.4419" y2="52.5536" gradientUnits="userSpaceOnUse">
<stop stop-color="#FFE082"/>
<stop offset="0.206" stop-color="#FCC761"/>
<stop offset="0.573" stop-color="#F89F2D"/>
<stop offset="0.849" stop-color="#F6850C"/>
<stop offset="1" stop-color="#F57C00"/>
</linearGradient>
<linearGradient id="paint6_linear" x1="82.8046" y1="11.2398" x2="95.4453" y2="26.6703" gradientUnits="userSpaceOnUse">
<stop offset="0.01" stop-color="#FFCA28"/>
<stop offset="0.365" stop-color="#FBA917"/>
<stop offset="0.774" stop-color="#F78806"/>
<stop offset="1" stop-color="#F57C00"/>
</linearGradient>
<clipPath id="clip0">
<rect width="100" height="100" fill="white"/>
</clipPath>
</defs>
</svg>
