<svg width="80" height="80" viewBox="0 0 100 100" fill="none" xmlns="http://www.w3.org/2000/svg">
<path d="M50 100C77.6142 100 100 77.6142 100 50C100 22.3858 77.6142 0 50 0C22.3858 0 0 22.3858 0 50C0 77.6142 22.3858 100 50 100Z" fill="#F4900C"/>
<path d="M100 47.2222H75.0528C75.575 31.9278 80.45 21.4028 88.3417 17.9278C87.0996 16.4612 85.7752 15.0664 84.375 13.75C76.5139 18.1333 70.0833 28.3972 69.5028 47.2194H52.7778V0H47.2222V47.2222H30.4972C29.9194 28.4 23.4889 18.1361 15.6278 13.7528C14.2262 15.0668 12.9017 16.4608 11.6611 17.9278C19.5528 21.4028 24.425 31.9278 24.9472 47.2222H0V52.7778H24.9472C24.425 68.0722 19.5528 78.5972 11.6611 82.0722C12.8972 83.5472 14.2333 84.925 15.6278 86.25C23.4917 81.8667 29.9194 71.6028 30.4972 52.7778H47.2222V100H52.7778V52.7778H69.5028C70.0833 71.6 76.5111 81.8639 84.375 86.25C85.7694 84.9278 87.1083 83.5472 88.3417 82.0722C80.45 78.5972 75.5778 68.0722 75.0528 52.7778H100V47.2222Z" fill="#231F20"/>
</svg>
