<svg width="21" height="20" viewBox="0 0 31 30" fill="none" xmlns="http://www.w3.org/2000/svg">
    <path fill-rule="evenodd" clip-rule="evenodd" d="M9.3 9.96695e-07C7.92971 9.96695e-07 6.61555 0.526785 5.64662 1.46447C4.67768 2.40215 4.13333 3.67392 4.13333 5V5.572C4.13333 6.468 4.4082 7.302 4.88147 8H3.1C2.27783 8 1.48933 8.31607 0.907969 8.87868C0.326606 9.44129 0 10.2044 0 11L0 13C0 13.7957 0.326606 14.5587 0.907969 15.1213C1.48933 15.6839 2.27783 16 3.1 16H14.4667V8H16.5333V16H27.9C28.7222 16 29.5107 15.6839 30.092 15.1213C30.6734 14.5587 31 13.7957 31 13V11C31 10.2044 30.6734 9.44129 30.092 8.87868C29.5107 8.31607 28.7222 8 27.9 8H26.1185C26.5918 7.302 26.8667 6.468 26.8667 5.572V5C26.8667 3.67392 26.3223 2.40215 25.3534 1.46447C24.3844 0.526785 23.0703 9.96695e-07 21.7 9.96695e-07C19.0691 9.96695e-07 16.7648 1.36 15.5 3.392C14.857 2.35677 13.9481 1.50026 12.8616 0.905845C11.7751 0.311429 10.5481 -0.000643647 9.3 9.96695e-07ZM16.5333 8H22.2911C23.6757 8 24.8 6.912 24.8 5.572V5C24.8 4.20435 24.4734 3.44129 23.892 2.87868C23.3107 2.31607 22.5222 2 21.7 2C20.3297 2 19.0156 2.52679 18.0466 3.46447C17.0777 4.40215 16.5333 5.67392 16.5333 7V8ZM14.4667 8H8.70893C7.32427 8 6.2 6.912 6.2 5.572V5C6.2 4.20435 6.52661 3.44129 7.10797 2.87868C7.68933 2.31607 8.47783 2 9.3 2C9.9785 2 10.6503 2.12933 11.2772 2.3806C11.904 2.63188 12.4736 3.00017 12.9534 3.46447C13.4332 3.92876 13.8137 4.47996 14.0734 5.08658C14.333 5.69321 14.4667 6.34339 14.4667 7V8Z" fill="#6BD7D0"/>
    <path d="M14.4669 18H2.06689V25C2.06689 26.3261 2.61124 27.5979 3.58018 28.5355C4.54911 29.4732 5.86328 30 7.23356 30H14.4669V18Z" fill="#6BD7D0"/>
    <path d="M16.5332 30H23.7665C25.1368 30 26.451 29.4732 27.4199 28.5355C28.3889 27.5979 28.9332 26.3261 28.9332 25V18H16.5332V30Z" fill="#6BD7D0"/>
</svg>